<svg width="92" height="16" viewBox="0 0 92 16" fill="none" xmlns="http://www.w3.org/2000/svg">
<g filter="url(#filter0_d)">
<mask id="path-1-outside-1" maskUnits="userSpaceOnUse" x="0.988" y="0.719971" width="90" height="14" fill="black">
<rect fill="white" x="0.988" y="0.719971" width="90" height="14"/>
<path d="M12.644 3.05197C12.868 3.08397 13.02 3.15197 13.1 3.25597C13.188 3.35997 13.232 3.49597 13.232 3.66397C13.232 4.21597 12.936 4.47197 12.344 4.43197L11.924 4.39597C11.452 4.35597 10.98 4.32397 10.508 4.29997C10.044 4.27597 9.556 4.26397 9.044 4.26397H8.504C8.408 5.44797 8.308 6.52797 8.204 7.50397L10.268 7.46797C10.564 7.46797 10.76 7.51997 10.856 7.62397C10.96 7.72797 11.012 7.86797 11.012 8.04397C11.012 8.31597 10.932 8.53197 10.772 8.69197C10.612 8.84397 10.384 8.91997 10.088 8.91997H8.036L7.964 9.43597C7.796 10.756 7.436 11.696 6.884 12.256C6.34 12.816 5.588 13.096 4.628 13.096C4.084 13.096 3.584 12.98 3.128 12.748C2.672 12.508 2.336 12.22 2.12 11.884C2.032 11.748 1.988 11.584 1.988 11.392C1.988 11.2 2.032 11.032 2.12 10.888C2.216 10.744 2.332 10.672 2.468 10.672C2.564 10.672 2.656 10.704 2.744 10.768C2.84 10.832 2.96 10.956 3.104 11.14C3.488 11.644 3.964 11.896 4.532 11.896C4.988 11.896 5.368 11.712 5.672 11.344C5.984 10.968 6.184 10.38 6.272 9.57997L6.344 8.91997H5.768C5.584 8.91997 5.424 8.86797 5.288 8.76397C5.16 8.65997 5.096 8.51197 5.096 8.31997C5.096 8.07197 5.16 7.88397 5.288 7.75597C5.416 7.61997 5.604 7.55197 5.852 7.55197C6.076 7.55197 6.296 7.54797 6.512 7.53997C6.608 6.65997 6.712 5.59197 6.824 4.33597C5.96 4.41597 5.352 4.55597 5 4.75597C4.648 4.95597 4.472 5.25197 4.472 5.64397C4.472 5.91597 4.552 6.17597 4.712 6.42397C4.76 6.49597 4.784 6.56797 4.784 6.63997C4.784 6.78397 4.704 6.91197 4.544 7.02397C4.384 7.12797 4.204 7.17997 4.004 7.17997C3.788 7.17997 3.604 7.11597 3.452 6.98797C3.356 6.90797 3.264 6.74397 3.176 6.49597C3.088 6.24797 3.044 5.97197 3.044 5.66797C3.044 4.67597 3.552 3.95597 4.568 3.50797C5.592 3.05997 7.084 2.83597 9.044 2.83597C10.404 2.83597 11.604 2.90797 12.644 3.05197Z"/>
<path d="M12.691 13.06C12.387 13.06 12.171 12.9 12.043 12.58C11.923 12.26 11.863 11.748 11.863 11.044C11.863 10.004 12.011 9.01597 12.307 8.07997C12.379 7.84797 12.495 7.67997 12.655 7.57597C12.823 7.46397 13.055 7.40797 13.351 7.40797C13.511 7.40797 13.623 7.42797 13.687 7.46797C13.751 7.50797 13.783 7.58397 13.783 7.69597C13.783 7.82397 13.723 8.11197 13.603 8.55997C13.523 8.87997 13.459 9.15997 13.411 9.39997C13.363 9.63997 13.323 9.93597 13.291 10.288C13.555 9.59997 13.851 9.03997 14.179 8.60797C14.507 8.17597 14.827 7.86797 15.139 7.68397C15.459 7.49997 15.751 7.40797 16.015 7.40797C16.535 7.40797 16.795 7.66797 16.795 8.18797C16.795 8.29197 16.759 8.54397 16.687 8.94397C16.623 9.26397 16.591 9.46397 16.591 9.54397C16.591 9.82397 16.691 9.96397 16.891 9.96397C17.115 9.96397 17.403 9.78797 17.755 9.43597C17.859 9.33197 17.967 9.27997 18.079 9.27997C18.183 9.27997 18.263 9.32797 18.319 9.42397C18.383 9.51197 18.415 9.63197 18.415 9.78397C18.415 10.08 18.335 10.312 18.175 10.48C17.951 10.712 17.687 10.912 17.383 11.08C17.087 11.24 16.771 11.32 16.435 11.32C16.011 11.32 15.687 11.212 15.463 10.996C15.247 10.78 15.139 10.488 15.139 10.12C15.139 9.99997 15.151 9.87997 15.175 9.75997C15.191 9.59997 15.199 9.49197 15.199 9.43597C15.199 9.30797 15.155 9.24397 15.067 9.24397C14.947 9.24397 14.787 9.37997 14.587 9.65197C14.395 9.91597 14.203 10.268 14.011 10.708C13.819 11.148 13.663 11.612 13.543 12.1C13.455 12.476 13.351 12.732 13.231 12.868C13.119 12.996 12.939 13.06 12.691 13.06Z"/>
<path d="M24.1399 9.31597C24.2439 9.31597 24.3239 9.36797 24.3799 9.47197C24.4359 9.57597 24.4639 9.70797 24.4639 9.86797C24.4639 10.252 24.3479 10.48 24.1159 10.552C23.6359 10.72 23.1079 10.816 22.5319 10.84C22.3799 11.512 22.0799 12.052 21.6319 12.46C21.1839 12.86 20.6759 13.06 20.1079 13.06C19.6279 13.06 19.2159 12.944 18.8719 12.712C18.5359 12.48 18.2799 12.172 18.1039 11.788C17.9279 11.404 17.8399 10.988 17.8399 10.54C17.8399 9.93197 17.9559 9.39197 18.1879 8.91997C18.4199 8.43997 18.7399 8.06797 19.1479 7.80397C19.5559 7.53197 20.0079 7.39597 20.5039 7.39597C21.1119 7.39597 21.5999 7.60797 21.9679 8.03197C22.3439 8.44797 22.5639 8.96397 22.6279 9.57997C23.0039 9.55597 23.4519 9.47597 23.9719 9.33997C24.0359 9.32397 24.0919 9.31597 24.1399 9.31597ZM20.2039 11.788C20.4599 11.788 20.6799 11.684 20.8639 11.476C21.0559 11.268 21.1839 10.968 21.2479 10.576C20.9999 10.408 20.8079 10.188 20.6719 9.91597C20.5439 9.64397 20.4799 9.35597 20.4799 9.05197C20.4799 8.92397 20.4919 8.79597 20.5159 8.66797H20.4559C20.1359 8.66797 19.8679 8.82397 19.6519 9.13597C19.4439 9.43997 19.3399 9.87197 19.3399 10.432C19.3399 10.872 19.4239 11.208 19.5919 11.44C19.7679 11.672 19.9719 11.788 20.2039 11.788Z"/>
<path d="M25.006 13.06C24.702 13.06 24.486 12.9 24.358 12.58C24.238 12.26 24.178 11.748 24.178 11.044C24.178 10.004 24.326 9.01597 24.622 8.07997C24.694 7.84797 24.81 7.67997 24.97 7.57597C25.138 7.46397 25.37 7.40797 25.666 7.40797C25.826 7.40797 25.938 7.42797 26.002 7.46797C26.066 7.50797 26.098 7.58397 26.098 7.69597C26.098 7.82397 26.038 8.11197 25.918 8.55997C25.838 8.87997 25.774 9.15997 25.726 9.39997C25.678 9.63997 25.638 9.93597 25.606 10.288C25.87 9.59997 26.166 9.03997 26.494 8.60797C26.822 8.17597 27.142 7.86797 27.454 7.68397C27.774 7.49997 28.066 7.40797 28.33 7.40797C28.85 7.40797 29.11 7.66797 29.11 8.18797C29.11 8.49997 29.022 9.06397 28.846 9.87997C28.694 10.576 28.618 11.036 28.618 11.26C28.618 11.58 28.734 11.74 28.966 11.74C29.126 11.74 29.314 11.644 29.53 11.452C29.754 11.252 30.05 10.932 30.418 10.492C30.514 10.38 30.622 10.324 30.742 10.324C30.846 10.324 30.926 10.372 30.982 10.468C31.046 10.564 31.078 10.696 31.078 10.864C31.078 11.184 31.002 11.432 30.85 11.608C30.506 12.032 30.134 12.38 29.734 12.652C29.342 12.924 28.894 13.06 28.39 13.06C27.982 13.06 27.674 12.944 27.466 12.712C27.258 12.472 27.154 12.128 27.154 11.68C27.154 11.456 27.21 11.056 27.322 10.48C27.426 9.97597 27.478 9.62797 27.478 9.43597C27.478 9.30797 27.434 9.24397 27.346 9.24397C27.242 9.24397 27.094 9.37997 26.902 9.65197C26.718 9.91597 26.526 10.268 26.326 10.708C26.134 11.148 25.978 11.612 25.858 12.1C25.77 12.476 25.666 12.732 25.546 12.868C25.434 12.996 25.254 13.06 25.006 13.06Z"/>
<path d="M36.1791 10.324C36.2831 10.324 36.3631 10.372 36.4191 10.468C36.4831 10.564 36.5151 10.696 36.5151 10.864C36.5151 11.184 36.4391 11.432 36.2871 11.608C35.9431 12.032 35.5671 12.38 35.1591 12.652C34.7511 12.924 34.2831 13.06 33.7551 13.06C32.1231 13.06 31.3071 11.912 31.3071 9.61597C31.3071 9.26397 31.3191 8.90797 31.3431 8.54797H30.8751C30.6351 8.54797 30.4711 8.50397 30.3831 8.41597C30.3031 8.32797 30.2631 8.18797 30.2631 7.99597C30.2631 7.54797 30.4431 7.32397 30.8031 7.32397H31.4871C31.6231 6.44397 31.8311 5.63997 32.1111 4.91197C32.3911 4.18397 32.7271 3.60397 33.1191 3.17197C33.5191 2.73997 33.9471 2.52397 34.4031 2.52397C34.7391 2.52397 35.0031 2.67197 35.1951 2.96797C35.3871 3.26397 35.4831 3.63597 35.4831 4.08397C35.4831 5.32397 34.9631 6.40397 33.9231 7.32397H35.2671C35.3951 7.32397 35.4871 7.35197 35.5431 7.40797C35.5991 7.46397 35.6271 7.56797 35.6271 7.71997C35.6271 8.27197 35.1751 8.54797 34.2711 8.54797H32.8071C32.7911 8.94797 32.7831 9.25997 32.7831 9.48397C32.7831 10.316 32.8791 10.9 33.0711 11.236C33.2711 11.572 33.5831 11.74 34.0071 11.74C34.3511 11.74 34.6551 11.636 34.9191 11.428C35.1831 11.22 35.4951 10.908 35.8551 10.492C35.9511 10.38 36.0591 10.324 36.1791 10.324ZM34.0791 3.67597C33.9591 3.67597 33.8231 3.82797 33.6711 4.13197C33.5271 4.42797 33.3871 4.84397 33.2511 5.37997C33.1231 5.90797 33.0151 6.49597 32.9271 7.14397C33.3991 6.73597 33.7511 6.27997 33.9831 5.77597C34.2231 5.26397 34.3431 4.79997 34.3431 4.38397C34.3431 3.91197 34.2551 3.67597 34.0791 3.67597Z"/>
<path d="M41.61 10.324C41.714 10.324 41.794 10.372 41.85 10.468C41.914 10.564 41.946 10.696 41.946 10.864C41.946 11.184 41.87 11.432 41.718 11.608C41.422 11.968 41.002 12.3 40.458 12.604C39.922 12.908 39.346 13.06 38.73 13.06C37.89 13.06 37.238 12.832 36.774 12.376C36.31 11.92 36.078 11.296 36.078 10.504C36.078 9.95197 36.194 9.43997 36.426 8.96797C36.658 8.48797 36.978 8.10797 37.386 7.82797C37.802 7.54797 38.27 7.40797 38.79 7.40797C39.254 7.40797 39.626 7.54797 39.906 7.82797C40.186 8.09997 40.326 8.47197 40.326 8.94397C40.326 9.49597 40.126 9.97197 39.726 10.372C39.334 10.764 38.666 11.076 37.722 11.308C37.922 11.676 38.302 11.86 38.862 11.86C39.222 11.86 39.63 11.736 40.086 11.488C40.55 11.232 40.95 10.9 41.286 10.492C41.382 10.38 41.49 10.324 41.61 10.324ZM38.586 8.58397C38.29 8.58397 38.038 8.75597 37.83 9.09997C37.63 9.44397 37.53 9.85997 37.53 10.348V10.372C38.002 10.26 38.374 10.092 38.646 9.86797C38.918 9.64397 39.054 9.38397 39.054 9.08797C39.054 8.93597 39.01 8.81597 38.922 8.72797C38.842 8.63197 38.73 8.58397 38.586 8.58397Z"/>
<path d="M42.541 13.06C42.237 13.06 42.021 12.9 41.893 12.58C41.773 12.26 41.713 11.748 41.713 11.044C41.713 10.004 41.861 9.01597 42.157 8.07997C42.229 7.84797 42.345 7.67997 42.505 7.57597C42.673 7.46397 42.905 7.40797 43.201 7.40797C43.361 7.40797 43.473 7.42797 43.537 7.46797C43.601 7.50797 43.633 7.58397 43.633 7.69597C43.633 7.82397 43.573 8.11197 43.453 8.55997C43.373 8.87997 43.309 9.15997 43.261 9.39997C43.213 9.63997 43.173 9.93597 43.141 10.288C43.405 9.59997 43.701 9.03997 44.029 8.60797C44.357 8.17597 44.677 7.86797 44.989 7.68397C45.309 7.49997 45.601 7.40797 45.865 7.40797C46.385 7.40797 46.645 7.66797 46.645 8.18797C46.645 8.49997 46.557 9.06397 46.381 9.87997C46.229 10.576 46.153 11.036 46.153 11.26C46.153 11.58 46.269 11.74 46.501 11.74C46.661 11.74 46.849 11.644 47.065 11.452C47.289 11.252 47.585 10.932 47.953 10.492C48.049 10.38 48.157 10.324 48.277 10.324C48.381 10.324 48.461 10.372 48.517 10.468C48.581 10.564 48.613 10.696 48.613 10.864C48.613 11.184 48.537 11.432 48.385 11.608C48.041 12.032 47.669 12.38 47.269 12.652C46.877 12.924 46.429 13.06 45.925 13.06C45.517 13.06 45.209 12.944 45.001 12.712C44.793 12.472 44.689 12.128 44.689 11.68C44.689 11.456 44.745 11.056 44.857 10.48C44.961 9.97597 45.013 9.62797 45.013 9.43597C45.013 9.30797 44.969 9.24397 44.881 9.24397C44.777 9.24397 44.629 9.37997 44.437 9.65197C44.253 9.91597 44.061 10.268 43.861 10.708C43.669 11.148 43.513 11.612 43.393 12.1C43.305 12.476 43.201 12.732 43.081 12.868C42.969 12.996 42.789 13.06 42.541 13.06Z"/>
<path d="M52.7301 10.324C52.8181 10.98 52.9461 11.628 53.1141 12.268C53.1461 12.372 53.1621 12.48 53.1621 12.592C53.1621 12.952 52.9421 13.132 52.5021 13.132C52.2541 13.132 52.0621 13.064 51.9261 12.928C51.7981 12.792 51.6781 12.536 51.5661 12.16L51.5541 12.112C51.2501 12.488 50.9741 12.74 50.7261 12.868C50.4861 12.996 50.2061 13.06 49.8861 13.06C49.3981 13.06 48.9941 12.88 48.6741 12.52C48.3621 12.152 48.2061 11.676 48.2061 11.092C48.2061 10.452 48.3421 9.85997 48.6141 9.31597C48.8861 8.77197 49.2581 8.32797 49.7301 7.98397C50.2021 7.63197 50.7301 7.41997 51.3141 7.34797C51.4661 5.83597 51.7541 4.51997 52.1781 3.39997C52.6101 2.27997 53.1821 1.71997 53.8941 1.71997C54.2381 1.71997 54.5221 1.87597 54.7461 2.18797C54.9781 2.49997 55.0941 2.97197 55.0941 3.60397C55.0941 4.48397 54.8781 5.51197 54.4461 6.68797C54.0141 7.86397 53.4421 9.07597 52.7301 10.324ZM53.7621 2.89597C53.5301 2.89597 53.3101 3.48797 53.1021 4.67197C52.9021 5.85597 52.7661 7.14397 52.6941 8.53597C53.5821 6.61597 54.0261 5.05597 54.0261 3.85597C54.0261 3.55197 53.9981 3.31597 53.9421 3.14797C53.8941 2.97997 53.8341 2.89597 53.7621 2.89597ZM50.3061 11.848C50.4661 11.848 50.6181 11.788 50.7621 11.668C50.9141 11.548 51.1061 11.316 51.3381 10.972C51.2581 10.388 51.2181 9.78397 51.2181 9.15997C51.2181 8.91197 51.2221 8.71997 51.2301 8.58397C50.7901 8.71197 50.4261 9.00397 50.1381 9.45997C49.8501 9.91597 49.7061 10.42 49.7061 10.972C49.7061 11.556 49.9061 11.848 50.3061 11.848Z"/>
<path d="M68.7358 5.31997C68.7358 5.99997 68.4958 6.58797 68.0158 7.08397C67.5358 7.57197 66.8358 7.92397 65.9158 8.13997C66.4118 8.27597 66.7878 8.49997 67.0438 8.81197C67.2998 9.11597 67.4278 9.46797 67.4278 9.86797C67.4278 10.5 67.2278 11.048 66.8278 11.512C66.4358 11.976 65.8598 12.336 65.0998 12.592C64.3398 12.84 63.4238 12.964 62.3518 12.964C61.9518 12.964 61.6318 12.952 61.3918 12.928C61.3838 13.152 61.2878 13.32 61.1038 13.432C60.9198 13.544 60.6838 13.6 60.3958 13.6C60.1078 13.6 59.9078 13.536 59.7958 13.408C59.6918 13.28 59.6478 13.092 59.6638 12.844C59.7358 11.724 59.8758 10.552 60.0838 9.32797C60.2918 8.09597 60.5558 6.90797 60.8758 5.76397C60.9318 5.56397 61.0438 5.42397 61.2118 5.34397C61.3798 5.26397 61.5998 5.22397 61.8718 5.22397C62.3598 5.22397 62.6038 5.35997 62.6038 5.63197C62.6038 5.74397 62.5798 5.87197 62.5318 6.01597C62.3238 6.63997 62.1158 7.48797 61.9078 8.55997C61.6998 9.62397 61.5518 10.64 61.4638 11.608C61.8478 11.64 62.1598 11.656 62.3998 11.656C63.5198 11.656 64.3398 11.496 64.8598 11.176C65.3878 10.848 65.6518 10.432 65.6518 9.92797C65.6518 9.57597 65.4998 9.27997 65.1958 9.03997C64.8998 8.79997 64.3998 8.66797 63.6958 8.64397C63.5358 8.63597 63.4238 8.59597 63.3598 8.52397C63.2958 8.45197 63.2638 8.33597 63.2638 8.17597C63.2638 7.94397 63.3118 7.75597 63.4078 7.61197C63.5038 7.46797 63.6798 7.39197 63.9358 7.38397C64.5038 7.36797 65.0158 7.28397 65.4718 7.13197C65.9358 6.97997 66.2998 6.76797 66.5638 6.49597C66.8278 6.21597 66.9598 5.89197 66.9598 5.52397C66.9598 5.05997 66.7318 4.69597 66.2758 4.43197C65.8198 4.15997 65.1198 4.02397 64.1758 4.02397C63.3198 4.02397 62.4918 4.13597 61.6918 4.35997C60.8918 4.57597 60.2118 4.85197 59.6518 5.18797C59.3958 5.33997 59.1798 5.41597 59.0038 5.41597C58.8598 5.41597 58.7478 5.36797 58.6678 5.27197C58.5958 5.16797 58.5598 5.03997 58.5598 4.88797C58.5598 4.68797 58.5998 4.51597 58.6798 4.37197C58.7678 4.22797 58.9718 4.06397 59.2918 3.87997C59.9638 3.49597 60.7518 3.19597 61.6558 2.97997C62.5598 2.76397 63.4838 2.65597 64.4278 2.65597C65.8758 2.65597 66.9558 2.89997 67.6678 3.38797C68.3798 3.87597 68.7358 4.51997 68.7358 5.31997Z"/>
<path d="M70.5372 13.06C70.0412 13.06 69.6452 12.88 69.3492 12.52C69.0532 12.16 68.9052 11.688 68.9052 11.104C68.9052 10.464 69.0532 9.85997 69.3492 9.29197C69.6452 8.71597 70.0372 8.25597 70.5252 7.91197C71.0212 7.55997 71.5452 7.38397 72.0972 7.38397C72.2732 7.38397 72.3892 7.41997 72.4452 7.49197C72.5092 7.55597 72.5612 7.67597 72.6012 7.85197C72.7692 7.81997 72.9452 7.80397 73.1292 7.80397C73.5212 7.80397 73.7172 7.94397 73.7172 8.22397C73.7172 8.39197 73.6572 8.79197 73.5372 9.42397C73.3532 10.344 73.2612 10.984 73.2612 11.344C73.2612 11.464 73.2892 11.56 73.3452 11.632C73.4092 11.704 73.4892 11.74 73.5852 11.74C73.7372 11.74 73.9212 11.644 74.1372 11.452C74.3532 11.252 74.6452 10.932 75.0132 10.492C75.1092 10.38 75.2172 10.324 75.3372 10.324C75.4412 10.324 75.5212 10.372 75.5772 10.468C75.6412 10.564 75.6732 10.696 75.6732 10.864C75.6732 11.184 75.5972 11.432 75.4452 11.608C75.1172 12.016 74.7692 12.36 74.4012 12.64C74.0332 12.92 73.6772 13.06 73.3332 13.06C73.0692 13.06 72.8252 12.972 72.6012 12.796C72.3852 12.612 72.2212 12.364 72.1092 12.052C71.6932 12.724 71.1692 13.06 70.5372 13.06ZM70.9692 11.848C71.1452 11.848 71.3132 11.744 71.4732 11.536C71.6332 11.328 71.7492 11.052 71.8212 10.708L72.2652 8.49997C71.9292 8.50797 71.6172 8.63597 71.3292 8.88397C71.0492 9.12397 70.8252 9.44397 70.6572 9.84397C70.4892 10.244 70.4052 10.668 70.4052 11.116C70.4052 11.364 70.4532 11.548 70.5492 11.668C70.6532 11.788 70.7932 11.848 70.9692 11.848Z"/>
<path d="M77.6499 13.324C77.2339 13.324 76.9139 13.228 76.6899 13.036C76.4739 12.844 76.3659 12.628 76.3659 12.388C76.3659 12.18 76.4419 12 76.5939 11.848C76.7459 11.696 76.9699 11.62 77.2659 11.62C77.3699 11.62 77.4899 11.632 77.6259 11.656C77.7699 11.672 77.8779 11.684 77.9499 11.692C77.9419 11.484 77.8939 11.288 77.8059 11.104C77.7259 10.92 77.6219 10.744 77.4939 10.576C77.3659 10.4 77.2459 10.248 77.1339 10.12C76.8859 10.592 76.6379 10.984 76.3899 11.296C76.1499 11.608 75.8859 11.904 75.5979 12.184C75.4539 12.328 75.3019 12.4 75.1419 12.4C75.0139 12.4 74.9099 12.356 74.8299 12.268C74.7499 12.172 74.7099 12.056 74.7099 11.92C74.7099 11.76 74.7659 11.612 74.8779 11.476L75.0339 11.284C75.4739 10.74 75.8059 10.292 76.0299 9.93997C76.1659 9.70797 76.3259 9.39997 76.5099 9.01597C76.6939 8.62397 76.8739 8.21997 77.0499 7.80397C77.2019 7.45197 77.5179 7.27597 77.9979 7.27597C78.2219 7.27597 78.3779 7.29597 78.4659 7.33597C78.5539 7.37597 78.5979 7.43997 78.5979 7.52797C78.5979 7.57597 78.5819 7.65197 78.5499 7.75597C78.5179 7.85997 78.4739 7.96397 78.4179 8.06797C78.2739 8.35597 78.2019 8.59997 78.2019 8.79997C78.2019 8.91997 78.2419 9.05197 78.3219 9.19597C78.4099 9.33997 78.5419 9.51997 78.7179 9.73597C78.9739 10.072 79.1659 10.36 79.2939 10.6C79.4299 10.832 79.4979 11.088 79.4979 11.368C79.4979 11.448 79.4899 11.56 79.4739 11.704C79.8659 11.552 80.3259 11.148 80.8539 10.492C80.9499 10.38 81.0579 10.324 81.1779 10.324C81.2819 10.324 81.3619 10.372 81.4179 10.468C81.4819 10.564 81.5139 10.696 81.5139 10.864C81.5139 11.168 81.4379 11.416 81.2859 11.608C80.8859 12.104 80.5019 12.444 80.1339 12.628C79.7739 12.804 79.3259 12.9 78.7899 12.916C78.4699 13.188 78.0899 13.324 77.6499 13.324Z"/>
<path d="M82.831 6.61597C82.495 6.61597 82.243 6.53997 82.075 6.38797C81.907 6.22797 81.823 6.00797 81.823 5.72797C81.823 5.44797 81.931 5.21597 82.147 5.03197C82.371 4.83997 82.647 4.74397 82.975 4.74397C83.271 4.74397 83.511 4.81597 83.695 4.95997C83.879 5.10397 83.971 5.30797 83.971 5.57197C83.971 5.89197 83.867 6.14797 83.659 6.33997C83.451 6.52397 83.175 6.61597 82.831 6.61597ZM82.735 13.06C82.215 13.06 81.835 12.876 81.595 12.508C81.363 12.14 81.247 11.652 81.247 11.044C81.247 10.684 81.291 10.224 81.379 9.66397C81.475 9.09597 81.595 8.56797 81.739 8.07997C81.811 7.82397 81.907 7.64797 82.027 7.55197C82.147 7.45597 82.339 7.40797 82.603 7.40797C83.011 7.40797 83.215 7.54397 83.215 7.81597C83.215 8.01597 83.139 8.47997 82.987 9.20797C82.795 10.088 82.699 10.684 82.699 10.996C82.699 11.236 82.731 11.42 82.795 11.548C82.859 11.676 82.967 11.74 83.119 11.74C83.263 11.74 83.443 11.64 83.659 11.44C83.875 11.24 84.163 10.924 84.523 10.492C84.619 10.38 84.727 10.324 84.847 10.324C84.951 10.324 85.031 10.372 85.087 10.468C85.151 10.564 85.183 10.696 85.183 10.864C85.183 11.184 85.107 11.432 84.955 11.608C84.163 12.576 83.423 13.06 82.735 13.06Z"/>
<path d="M87.1641 13.06C86.4041 13.06 85.8081 12.84 85.3761 12.4C84.9521 11.952 84.7401 11.364 84.7401 10.636C84.7401 9.98797 84.8681 9.41997 85.1241 8.93197C85.3801 8.44397 85.7121 8.06797 86.1201 7.80397C86.5281 7.53997 86.9561 7.40797 87.4041 7.40797C87.8441 7.40797 88.1841 7.53997 88.4241 7.80397C88.6721 8.05997 88.7961 8.39197 88.7961 8.79997C88.7961 9.13597 88.7201 9.41997 88.5681 9.65197C88.4241 9.88397 88.2321 9.99997 87.9921 9.99997C87.8401 9.99997 87.7161 9.96397 87.6201 9.89197C87.5321 9.81997 87.4881 9.71997 87.4881 9.59197C87.4881 9.53597 87.4961 9.47197 87.5121 9.39997C87.5281 9.32797 87.5401 9.27597 87.5481 9.24397C87.5881 9.12397 87.6081 9.01197 87.6081 8.90797C87.6081 8.80397 87.5801 8.72397 87.5241 8.66797C87.4761 8.61197 87.4041 8.58397 87.3081 8.58397C87.1241 8.58397 86.9521 8.66797 86.7921 8.83597C86.6321 8.99597 86.5041 9.21597 86.4081 9.49597C86.3121 9.77597 86.2641 10.084 86.2641 10.42C86.2641 10.876 86.3561 11.224 86.5401 11.464C86.7321 11.696 87.0001 11.812 87.3441 11.812C87.6161 11.812 87.8641 11.732 88.0881 11.572C88.3201 11.412 88.5481 11.176 88.7721 10.864C88.8681 10.744 88.9761 10.684 89.0961 10.684C89.2001 10.684 89.2801 10.732 89.3361 10.828C89.4001 10.924 89.4321 11.056 89.4321 11.224C89.4321 11.512 89.3641 11.76 89.2281 11.968C89.0121 12.304 88.7281 12.572 88.3761 12.772C88.0241 12.964 87.6201 13.06 87.1641 13.06Z"/>
</mask>
<path d="M12.644 3.05197C12.868 3.08397 13.02 3.15197 13.1 3.25597C13.188 3.35997 13.232 3.49597 13.232 3.66397C13.232 4.21597 12.936 4.47197 12.344 4.43197L11.924 4.39597C11.452 4.35597 10.98 4.32397 10.508 4.29997C10.044 4.27597 9.556 4.26397 9.044 4.26397H8.504C8.408 5.44797 8.308 6.52797 8.204 7.50397L10.268 7.46797C10.564 7.46797 10.76 7.51997 10.856 7.62397C10.96 7.72797 11.012 7.86797 11.012 8.04397C11.012 8.31597 10.932 8.53197 10.772 8.69197C10.612 8.84397 10.384 8.91997 10.088 8.91997H8.036L7.964 9.43597C7.796 10.756 7.436 11.696 6.884 12.256C6.34 12.816 5.588 13.096 4.628 13.096C4.084 13.096 3.584 12.98 3.128 12.748C2.672 12.508 2.336 12.22 2.12 11.884C2.032 11.748 1.988 11.584 1.988 11.392C1.988 11.2 2.032 11.032 2.12 10.888C2.216 10.744 2.332 10.672 2.468 10.672C2.564 10.672 2.656 10.704 2.744 10.768C2.84 10.832 2.96 10.956 3.104 11.14C3.488 11.644 3.964 11.896 4.532 11.896C4.988 11.896 5.368 11.712 5.672 11.344C5.984 10.968 6.184 10.38 6.272 9.57997L6.344 8.91997H5.768C5.584 8.91997 5.424 8.86797 5.288 8.76397C5.16 8.65997 5.096 8.51197 5.096 8.31997C5.096 8.07197 5.16 7.88397 5.288 7.75597C5.416 7.61997 5.604 7.55197 5.852 7.55197C6.076 7.55197 6.296 7.54797 6.512 7.53997C6.608 6.65997 6.712 5.59197 6.824 4.33597C5.96 4.41597 5.352 4.55597 5 4.75597C4.648 4.95597 4.472 5.25197 4.472 5.64397C4.472 5.91597 4.552 6.17597 4.712 6.42397C4.76 6.49597 4.784 6.56797 4.784 6.63997C4.784 6.78397 4.704 6.91197 4.544 7.02397C4.384 7.12797 4.204 7.17997 4.004 7.17997C3.788 7.17997 3.604 7.11597 3.452 6.98797C3.356 6.90797 3.264 6.74397 3.176 6.49597C3.088 6.24797 3.044 5.97197 3.044 5.66797C3.044 4.67597 3.552 3.95597 4.568 3.50797C5.592 3.05997 7.084 2.83597 9.044 2.83597C10.404 2.83597 11.604 2.90797 12.644 3.05197Z" fill="#6B80CB"/>
<path d="M12.644 3.05197C12.868 3.08397 13.02 3.15197 13.1 3.25597C13.188 3.35997 13.232 3.49597 13.232 3.66397C13.232 4.21597 12.936 4.47197 12.344 4.43197L11.924 4.39597C11.452 4.35597 10.98 4.32397 10.508 4.29997C10.044 4.27597 9.556 4.26397 9.044 4.26397H8.504C8.408 5.44797 8.308 6.52797 8.204 7.50397L10.268 7.46797C10.564 7.46797 10.76 7.51997 10.856 7.62397C10.96 7.72797 11.012 7.86797 11.012 8.04397C11.012 8.31597 10.932 8.53197 10.772 8.69197C10.612 8.84397 10.384 8.91997 10.088 8.91997H8.036L7.964 9.43597C7.796 10.756 7.436 11.696 6.884 12.256C6.34 12.816 5.588 13.096 4.628 13.096C4.084 13.096 3.584 12.98 3.128 12.748C2.672 12.508 2.336 12.22 2.12 11.884C2.032 11.748 1.988 11.584 1.988 11.392C1.988 11.2 2.032 11.032 2.12 10.888C2.216 10.744 2.332 10.672 2.468 10.672C2.564 10.672 2.656 10.704 2.744 10.768C2.84 10.832 2.96 10.956 3.104 11.14C3.488 11.644 3.964 11.896 4.532 11.896C4.988 11.896 5.368 11.712 5.672 11.344C5.984 10.968 6.184 10.38 6.272 9.57997L6.344 8.91997H5.768C5.584 8.91997 5.424 8.86797 5.288 8.76397C5.16 8.65997 5.096 8.51197 5.096 8.31997C5.096 8.07197 5.16 7.88397 5.288 7.75597C5.416 7.61997 5.604 7.55197 5.852 7.55197C6.076 7.55197 6.296 7.54797 6.512 7.53997C6.608 6.65997 6.712 5.59197 6.824 4.33597C5.96 4.41597 5.352 4.55597 5 4.75597C4.648 4.95597 4.472 5.25197 4.472 5.64397C4.472 5.91597 4.552 6.17597 4.712 6.42397C4.76 6.49597 4.784 6.56797 4.784 6.63997C4.784 6.78397 4.704 6.91197 4.544 7.02397C4.384 7.12797 4.204 7.17997 4.004 7.17997C3.788 7.17997 3.604 7.11597 3.452 6.98797C3.356 6.90797 3.264 6.74397 3.176 6.49597C3.088 6.24797 3.044 5.97197 3.044 5.66797C3.044 4.67597 3.552 3.95597 4.568 3.50797C5.592 3.05997 7.084 2.83597 9.044 2.83597C10.404 2.83597 11.604 2.90797 12.644 3.05197Z" fill="url(#paint0_linear)"/>
<path d="M12.691 13.06C12.387 13.06 12.171 12.9 12.043 12.58C11.923 12.26 11.863 11.748 11.863 11.044C11.863 10.004 12.011 9.01597 12.307 8.07997C12.379 7.84797 12.495 7.67997 12.655 7.57597C12.823 7.46397 13.055 7.40797 13.351 7.40797C13.511 7.40797 13.623 7.42797 13.687 7.46797C13.751 7.50797 13.783 7.58397 13.783 7.69597C13.783 7.82397 13.723 8.11197 13.603 8.55997C13.523 8.87997 13.459 9.15997 13.411 9.39997C13.363 9.63997 13.323 9.93597 13.291 10.288C13.555 9.59997 13.851 9.03997 14.179 8.60797C14.507 8.17597 14.827 7.86797 15.139 7.68397C15.459 7.49997 15.751 7.40797 16.015 7.40797C16.535 7.40797 16.795 7.66797 16.795 8.18797C16.795 8.29197 16.759 8.54397 16.687 8.94397C16.623 9.26397 16.591 9.46397 16.591 9.54397C16.591 9.82397 16.691 9.96397 16.891 9.96397C17.115 9.96397 17.403 9.78797 17.755 9.43597C17.859 9.33197 17.967 9.27997 18.079 9.27997C18.183 9.27997 18.263 9.32797 18.319 9.42397C18.383 9.51197 18.415 9.63197 18.415 9.78397C18.415 10.08 18.335 10.312 18.175 10.48C17.951 10.712 17.687 10.912 17.383 11.08C17.087 11.24 16.771 11.32 16.435 11.32C16.011 11.32 15.687 11.212 15.463 10.996C15.247 10.78 15.139 10.488 15.139 10.12C15.139 9.99997 15.151 9.87997 15.175 9.75997C15.191 9.59997 15.199 9.49197 15.199 9.43597C15.199 9.30797 15.155 9.24397 15.067 9.24397C14.947 9.24397 14.787 9.37997 14.587 9.65197C14.395 9.91597 14.203 10.268 14.011 10.708C13.819 11.148 13.663 11.612 13.543 12.1C13.455 12.476 13.351 12.732 13.231 12.868C13.119 12.996 12.939 13.06 12.691 13.06Z" fill="#6B80CB"/>
<path d="M12.691 13.06C12.387 13.06 12.171 12.9 12.043 12.58C11.923 12.26 11.863 11.748 11.863 11.044C11.863 10.004 12.011 9.01597 12.307 8.07997C12.379 7.84797 12.495 7.67997 12.655 7.57597C12.823 7.46397 13.055 7.40797 13.351 7.40797C13.511 7.40797 13.623 7.42797 13.687 7.46797C13.751 7.50797 13.783 7.58397 13.783 7.69597C13.783 7.82397 13.723 8.11197 13.603 8.55997C13.523 8.87997 13.459 9.15997 13.411 9.39997C13.363 9.63997 13.323 9.93597 13.291 10.288C13.555 9.59997 13.851 9.03997 14.179 8.60797C14.507 8.17597 14.827 7.86797 15.139 7.68397C15.459 7.49997 15.751 7.40797 16.015 7.40797C16.535 7.40797 16.795 7.66797 16.795 8.18797C16.795 8.29197 16.759 8.54397 16.687 8.94397C16.623 9.26397 16.591 9.46397 16.591 9.54397C16.591 9.82397 16.691 9.96397 16.891 9.96397C17.115 9.96397 17.403 9.78797 17.755 9.43597C17.859 9.33197 17.967 9.27997 18.079 9.27997C18.183 9.27997 18.263 9.32797 18.319 9.42397C18.383 9.51197 18.415 9.63197 18.415 9.78397C18.415 10.08 18.335 10.312 18.175 10.48C17.951 10.712 17.687 10.912 17.383 11.08C17.087 11.24 16.771 11.32 16.435 11.32C16.011 11.32 15.687 11.212 15.463 10.996C15.247 10.78 15.139 10.488 15.139 10.12C15.139 9.99997 15.151 9.87997 15.175 9.75997C15.191 9.59997 15.199 9.49197 15.199 9.43597C15.199 9.30797 15.155 9.24397 15.067 9.24397C14.947 9.24397 14.787 9.37997 14.587 9.65197C14.395 9.91597 14.203 10.268 14.011 10.708C13.819 11.148 13.663 11.612 13.543 12.1C13.455 12.476 13.351 12.732 13.231 12.868C13.119 12.996 12.939 13.06 12.691 13.06Z" fill="url(#paint1_linear)"/>
<path d="M24.1399 9.31597C24.2439 9.31597 24.3239 9.36797 24.3799 9.47197C24.4359 9.57597 24.4639 9.70797 24.4639 9.86797C24.4639 10.252 24.3479 10.48 24.1159 10.552C23.6359 10.72 23.1079 10.816 22.5319 10.84C22.3799 11.512 22.0799 12.052 21.6319 12.46C21.1839 12.86 20.6759 13.06 20.1079 13.06C19.6279 13.06 19.2159 12.944 18.8719 12.712C18.5359 12.48 18.2799 12.172 18.1039 11.788C17.9279 11.404 17.8399 10.988 17.8399 10.54C17.8399 9.93197 17.9559 9.39197 18.1879 8.91997C18.4199 8.43997 18.7399 8.06797 19.1479 7.80397C19.5559 7.53197 20.0079 7.39597 20.5039 7.39597C21.1119 7.39597 21.5999 7.60797 21.9679 8.03197C22.3439 8.44797 22.5639 8.96397 22.6279 9.57997C23.0039 9.55597 23.4519 9.47597 23.9719 9.33997C24.0359 9.32397 24.0919 9.31597 24.1399 9.31597ZM20.2039 11.788C20.4599 11.788 20.6799 11.684 20.8639 11.476C21.0559 11.268 21.1839 10.968 21.2479 10.576C20.9999 10.408 20.8079 10.188 20.6719 9.91597C20.5439 9.64397 20.4799 9.35597 20.4799 9.05197C20.4799 8.92397 20.4919 8.79597 20.5159 8.66797H20.4559C20.1359 8.66797 19.8679 8.82397 19.6519 9.13597C19.4439 9.43997 19.3399 9.87197 19.3399 10.432C19.3399 10.872 19.4239 11.208 19.5919 11.44C19.7679 11.672 19.9719 11.788 20.2039 11.788Z" fill="#6B80CB"/>
<path d="M24.1399 9.31597C24.2439 9.31597 24.3239 9.36797 24.3799 9.47197C24.4359 9.57597 24.4639 9.70797 24.4639 9.86797C24.4639 10.252 24.3479 10.48 24.1159 10.552C23.6359 10.72 23.1079 10.816 22.5319 10.84C22.3799 11.512 22.0799 12.052 21.6319 12.46C21.1839 12.86 20.6759 13.06 20.1079 13.06C19.6279 13.06 19.2159 12.944 18.8719 12.712C18.5359 12.48 18.2799 12.172 18.1039 11.788C17.9279 11.404 17.8399 10.988 17.8399 10.54C17.8399 9.93197 17.9559 9.39197 18.1879 8.91997C18.4199 8.43997 18.7399 8.06797 19.1479 7.80397C19.5559 7.53197 20.0079 7.39597 20.5039 7.39597C21.1119 7.39597 21.5999 7.60797 21.9679 8.03197C22.3439 8.44797 22.5639 8.96397 22.6279 9.57997C23.0039 9.55597 23.4519 9.47597 23.9719 9.33997C24.0359 9.32397 24.0919 9.31597 24.1399 9.31597ZM20.2039 11.788C20.4599 11.788 20.6799 11.684 20.8639 11.476C21.0559 11.268 21.1839 10.968 21.2479 10.576C20.9999 10.408 20.8079 10.188 20.6719 9.91597C20.5439 9.64397 20.4799 9.35597 20.4799 9.05197C20.4799 8.92397 20.4919 8.79597 20.5159 8.66797H20.4559C20.1359 8.66797 19.8679 8.82397 19.6519 9.13597C19.4439 9.43997 19.3399 9.87197 19.3399 10.432C19.3399 10.872 19.4239 11.208 19.5919 11.44C19.7679 11.672 19.9719 11.788 20.2039 11.788Z" fill="url(#paint2_linear)"/>
<path d="M25.006 13.06C24.702 13.06 24.486 12.9 24.358 12.58C24.238 12.26 24.178 11.748 24.178 11.044C24.178 10.004 24.326 9.01597 24.622 8.07997C24.694 7.84797 24.81 7.67997 24.97 7.57597C25.138 7.46397 25.37 7.40797 25.666 7.40797C25.826 7.40797 25.938 7.42797 26.002 7.46797C26.066 7.50797 26.098 7.58397 26.098 7.69597C26.098 7.82397 26.038 8.11197 25.918 8.55997C25.838 8.87997 25.774 9.15997 25.726 9.39997C25.678 9.63997 25.638 9.93597 25.606 10.288C25.87 9.59997 26.166 9.03997 26.494 8.60797C26.822 8.17597 27.142 7.86797 27.454 7.68397C27.774 7.49997 28.066 7.40797 28.33 7.40797C28.85 7.40797 29.11 7.66797 29.11 8.18797C29.11 8.49997 29.022 9.06397 28.846 9.87997C28.694 10.576 28.618 11.036 28.618 11.26C28.618 11.58 28.734 11.74 28.966 11.74C29.126 11.74 29.314 11.644 29.53 11.452C29.754 11.252 30.05 10.932 30.418 10.492C30.514 10.38 30.622 10.324 30.742 10.324C30.846 10.324 30.926 10.372 30.982 10.468C31.046 10.564 31.078 10.696 31.078 10.864C31.078 11.184 31.002 11.432 30.85 11.608C30.506 12.032 30.134 12.38 29.734 12.652C29.342 12.924 28.894 13.06 28.39 13.06C27.982 13.06 27.674 12.944 27.466 12.712C27.258 12.472 27.154 12.128 27.154 11.68C27.154 11.456 27.21 11.056 27.322 10.48C27.426 9.97597 27.478 9.62797 27.478 9.43597C27.478 9.30797 27.434 9.24397 27.346 9.24397C27.242 9.24397 27.094 9.37997 26.902 9.65197C26.718 9.91597 26.526 10.268 26.326 10.708C26.134 11.148 25.978 11.612 25.858 12.1C25.77 12.476 25.666 12.732 25.546 12.868C25.434 12.996 25.254 13.06 25.006 13.06Z" fill="#6B80CB"/>
<path d="M25.006 13.06C24.702 13.06 24.486 12.9 24.358 12.58C24.238 12.26 24.178 11.748 24.178 11.044C24.178 10.004 24.326 9.01597 24.622 8.07997C24.694 7.84797 24.81 7.67997 24.97 7.57597C25.138 7.46397 25.37 7.40797 25.666 7.40797C25.826 7.40797 25.938 7.42797 26.002 7.46797C26.066 7.50797 26.098 7.58397 26.098 7.69597C26.098 7.82397 26.038 8.11197 25.918 8.55997C25.838 8.87997 25.774 9.15997 25.726 9.39997C25.678 9.63997 25.638 9.93597 25.606 10.288C25.87 9.59997 26.166 9.03997 26.494 8.60797C26.822 8.17597 27.142 7.86797 27.454 7.68397C27.774 7.49997 28.066 7.40797 28.33 7.40797C28.85 7.40797 29.11 7.66797 29.11 8.18797C29.11 8.49997 29.022 9.06397 28.846 9.87997C28.694 10.576 28.618 11.036 28.618 11.26C28.618 11.58 28.734 11.74 28.966 11.74C29.126 11.74 29.314 11.644 29.53 11.452C29.754 11.252 30.05 10.932 30.418 10.492C30.514 10.38 30.622 10.324 30.742 10.324C30.846 10.324 30.926 10.372 30.982 10.468C31.046 10.564 31.078 10.696 31.078 10.864C31.078 11.184 31.002 11.432 30.85 11.608C30.506 12.032 30.134 12.38 29.734 12.652C29.342 12.924 28.894 13.06 28.39 13.06C27.982 13.06 27.674 12.944 27.466 12.712C27.258 12.472 27.154 12.128 27.154 11.68C27.154 11.456 27.21 11.056 27.322 10.48C27.426 9.97597 27.478 9.62797 27.478 9.43597C27.478 9.30797 27.434 9.24397 27.346 9.24397C27.242 9.24397 27.094 9.37997 26.902 9.65197C26.718 9.91597 26.526 10.268 26.326 10.708C26.134 11.148 25.978 11.612 25.858 12.1C25.77 12.476 25.666 12.732 25.546 12.868C25.434 12.996 25.254 13.06 25.006 13.06Z" fill="url(#paint3_linear)"/>
<path d="M36.1791 10.324C36.2831 10.324 36.3631 10.372 36.4191 10.468C36.4831 10.564 36.5151 10.696 36.5151 10.864C36.5151 11.184 36.4391 11.432 36.2871 11.608C35.9431 12.032 35.5671 12.38 35.1591 12.652C34.7511 12.924 34.2831 13.06 33.7551 13.06C32.1231 13.06 31.3071 11.912 31.3071 9.61597C31.3071 9.26397 31.3191 8.90797 31.3431 8.54797H30.8751C30.6351 8.54797 30.4711 8.50397 30.3831 8.41597C30.3031 8.32797 30.2631 8.18797 30.2631 7.99597C30.2631 7.54797 30.4431 7.32397 30.8031 7.32397H31.4871C31.6231 6.44397 31.8311 5.63997 32.1111 4.91197C32.3911 4.18397 32.7271 3.60397 33.1191 3.17197C33.5191 2.73997 33.9471 2.52397 34.4031 2.52397C34.7391 2.52397 35.0031 2.67197 35.1951 2.96797C35.3871 3.26397 35.4831 3.63597 35.4831 4.08397C35.4831 5.32397 34.9631 6.40397 33.9231 7.32397H35.2671C35.3951 7.32397 35.4871 7.35197 35.5431 7.40797C35.5991 7.46397 35.6271 7.56797 35.6271 7.71997C35.6271 8.27197 35.1751 8.54797 34.2711 8.54797H32.8071C32.7911 8.94797 32.7831 9.25997 32.7831 9.48397C32.7831 10.316 32.8791 10.9 33.0711 11.236C33.2711 11.572 33.5831 11.74 34.0071 11.74C34.3511 11.74 34.6551 11.636 34.9191 11.428C35.1831 11.22 35.4951 10.908 35.8551 10.492C35.9511 10.38 36.0591 10.324 36.1791 10.324ZM34.0791 3.67597C33.9591 3.67597 33.8231 3.82797 33.6711 4.13197C33.5271 4.42797 33.3871 4.84397 33.2511 5.37997C33.1231 5.90797 33.0151 6.49597 32.9271 7.14397C33.3991 6.73597 33.7511 6.27997 33.9831 5.77597C34.2231 5.26397 34.3431 4.79997 34.3431 4.38397C34.3431 3.91197 34.2551 3.67597 34.0791 3.67597Z" fill="#6B80CB"/>
<path d="M36.1791 10.324C36.2831 10.324 36.3631 10.372 36.4191 10.468C36.4831 10.564 36.5151 10.696 36.5151 10.864C36.5151 11.184 36.4391 11.432 36.2871 11.608C35.9431 12.032 35.5671 12.38 35.1591 12.652C34.7511 12.924 34.2831 13.06 33.7551 13.06C32.1231 13.06 31.3071 11.912 31.3071 9.61597C31.3071 9.26397 31.3191 8.90797 31.3431 8.54797H30.8751C30.6351 8.54797 30.4711 8.50397 30.3831 8.41597C30.3031 8.32797 30.2631 8.18797 30.2631 7.99597C30.2631 7.54797 30.4431 7.32397 30.8031 7.32397H31.4871C31.6231 6.44397 31.8311 5.63997 32.1111 4.91197C32.3911 4.18397 32.7271 3.60397 33.1191 3.17197C33.5191 2.73997 33.9471 2.52397 34.4031 2.52397C34.7391 2.52397 35.0031 2.67197 35.1951 2.96797C35.3871 3.26397 35.4831 3.63597 35.4831 4.08397C35.4831 5.32397 34.9631 6.40397 33.9231 7.32397H35.2671C35.3951 7.32397 35.4871 7.35197 35.5431 7.40797C35.5991 7.46397 35.6271 7.56797 35.6271 7.71997C35.6271 8.27197 35.1751 8.54797 34.2711 8.54797H32.8071C32.7911 8.94797 32.7831 9.25997 32.7831 9.48397C32.7831 10.316 32.8791 10.9 33.0711 11.236C33.2711 11.572 33.5831 11.74 34.0071 11.74C34.3511 11.74 34.6551 11.636 34.9191 11.428C35.1831 11.22 35.4951 10.908 35.8551 10.492C35.9511 10.38 36.0591 10.324 36.1791 10.324ZM34.0791 3.67597C33.9591 3.67597 33.8231 3.82797 33.6711 4.13197C33.5271 4.42797 33.3871 4.84397 33.2511 5.37997C33.1231 5.90797 33.0151 6.49597 32.9271 7.14397C33.3991 6.73597 33.7511 6.27997 33.9831 5.77597C34.2231 5.26397 34.3431 4.79997 34.3431 4.38397C34.3431 3.91197 34.2551 3.67597 34.0791 3.67597Z" fill="url(#paint4_linear)"/>
<path d="M41.61 10.324C41.714 10.324 41.794 10.372 41.85 10.468C41.914 10.564 41.946 10.696 41.946 10.864C41.946 11.184 41.87 11.432 41.718 11.608C41.422 11.968 41.002 12.3 40.458 12.604C39.922 12.908 39.346 13.06 38.73 13.06C37.89 13.06 37.238 12.832 36.774 12.376C36.31 11.92 36.078 11.296 36.078 10.504C36.078 9.95197 36.194 9.43997 36.426 8.96797C36.658 8.48797 36.978 8.10797 37.386 7.82797C37.802 7.54797 38.27 7.40797 38.79 7.40797C39.254 7.40797 39.626 7.54797 39.906 7.82797C40.186 8.09997 40.326 8.47197 40.326 8.94397C40.326 9.49597 40.126 9.97197 39.726 10.372C39.334 10.764 38.666 11.076 37.722 11.308C37.922 11.676 38.302 11.86 38.862 11.86C39.222 11.86 39.63 11.736 40.086 11.488C40.55 11.232 40.95 10.9 41.286 10.492C41.382 10.38 41.49 10.324 41.61 10.324ZM38.586 8.58397C38.29 8.58397 38.038 8.75597 37.83 9.09997C37.63 9.44397 37.53 9.85997 37.53 10.348V10.372C38.002 10.26 38.374 10.092 38.646 9.86797C38.918 9.64397 39.054 9.38397 39.054 9.08797C39.054 8.93597 39.01 8.81597 38.922 8.72797C38.842 8.63197 38.73 8.58397 38.586 8.58397Z" fill="#6B80CB"/>
<path d="M41.61 10.324C41.714 10.324 41.794 10.372 41.85 10.468C41.914 10.564 41.946 10.696 41.946 10.864C41.946 11.184 41.87 11.432 41.718 11.608C41.422 11.968 41.002 12.3 40.458 12.604C39.922 12.908 39.346 13.06 38.73 13.06C37.89 13.06 37.238 12.832 36.774 12.376C36.31 11.92 36.078 11.296 36.078 10.504C36.078 9.95197 36.194 9.43997 36.426 8.96797C36.658 8.48797 36.978 8.10797 37.386 7.82797C37.802 7.54797 38.27 7.40797 38.79 7.40797C39.254 7.40797 39.626 7.54797 39.906 7.82797C40.186 8.09997 40.326 8.47197 40.326 8.94397C40.326 9.49597 40.126 9.97197 39.726 10.372C39.334 10.764 38.666 11.076 37.722 11.308C37.922 11.676 38.302 11.86 38.862 11.86C39.222 11.86 39.63 11.736 40.086 11.488C40.55 11.232 40.95 10.9 41.286 10.492C41.382 10.38 41.49 10.324 41.61 10.324ZM38.586 8.58397C38.29 8.58397 38.038 8.75597 37.83 9.09997C37.63 9.44397 37.53 9.85997 37.53 10.348V10.372C38.002 10.26 38.374 10.092 38.646 9.86797C38.918 9.64397 39.054 9.38397 39.054 9.08797C39.054 8.93597 39.01 8.81597 38.922 8.72797C38.842 8.63197 38.73 8.58397 38.586 8.58397Z" fill="url(#paint5_linear)"/>
<path d="M42.541 13.06C42.237 13.06 42.021 12.9 41.893 12.58C41.773 12.26 41.713 11.748 41.713 11.044C41.713 10.004 41.861 9.01597 42.157 8.07997C42.229 7.84797 42.345 7.67997 42.505 7.57597C42.673 7.46397 42.905 7.40797 43.201 7.40797C43.361 7.40797 43.473 7.42797 43.537 7.46797C43.601 7.50797 43.633 7.58397 43.633 7.69597C43.633 7.82397 43.573 8.11197 43.453 8.55997C43.373 8.87997 43.309 9.15997 43.261 9.39997C43.213 9.63997 43.173 9.93597 43.141 10.288C43.405 9.59997 43.701 9.03997 44.029 8.60797C44.357 8.17597 44.677 7.86797 44.989 7.68397C45.309 7.49997 45.601 7.40797 45.865 7.40797C46.385 7.40797 46.645 7.66797 46.645 8.18797C46.645 8.49997 46.557 9.06397 46.381 9.87997C46.229 10.576 46.153 11.036 46.153 11.26C46.153 11.58 46.269 11.74 46.501 11.74C46.661 11.74 46.849 11.644 47.065 11.452C47.289 11.252 47.585 10.932 47.953 10.492C48.049 10.38 48.157 10.324 48.277 10.324C48.381 10.324 48.461 10.372 48.517 10.468C48.581 10.564 48.613 10.696 48.613 10.864C48.613 11.184 48.537 11.432 48.385 11.608C48.041 12.032 47.669 12.38 47.269 12.652C46.877 12.924 46.429 13.06 45.925 13.06C45.517 13.06 45.209 12.944 45.001 12.712C44.793 12.472 44.689 12.128 44.689 11.68C44.689 11.456 44.745 11.056 44.857 10.48C44.961 9.97597 45.013 9.62797 45.013 9.43597C45.013 9.30797 44.969 9.24397 44.881 9.24397C44.777 9.24397 44.629 9.37997 44.437 9.65197C44.253 9.91597 44.061 10.268 43.861 10.708C43.669 11.148 43.513 11.612 43.393 12.1C43.305 12.476 43.201 12.732 43.081 12.868C42.969 12.996 42.789 13.06 42.541 13.06Z" fill="#6B80CB"/>
<path d="M42.541 13.06C42.237 13.06 42.021 12.9 41.893 12.58C41.773 12.26 41.713 11.748 41.713 11.044C41.713 10.004 41.861 9.01597 42.157 8.07997C42.229 7.84797 42.345 7.67997 42.505 7.57597C42.673 7.46397 42.905 7.40797 43.201 7.40797C43.361 7.40797 43.473 7.42797 43.537 7.46797C43.601 7.50797 43.633 7.58397 43.633 7.69597C43.633 7.82397 43.573 8.11197 43.453 8.55997C43.373 8.87997 43.309 9.15997 43.261 9.39997C43.213 9.63997 43.173 9.93597 43.141 10.288C43.405 9.59997 43.701 9.03997 44.029 8.60797C44.357 8.17597 44.677 7.86797 44.989 7.68397C45.309 7.49997 45.601 7.40797 45.865 7.40797C46.385 7.40797 46.645 7.66797 46.645 8.18797C46.645 8.49997 46.557 9.06397 46.381 9.87997C46.229 10.576 46.153 11.036 46.153 11.26C46.153 11.58 46.269 11.74 46.501 11.74C46.661 11.74 46.849 11.644 47.065 11.452C47.289 11.252 47.585 10.932 47.953 10.492C48.049 10.38 48.157 10.324 48.277 10.324C48.381 10.324 48.461 10.372 48.517 10.468C48.581 10.564 48.613 10.696 48.613 10.864C48.613 11.184 48.537 11.432 48.385 11.608C48.041 12.032 47.669 12.38 47.269 12.652C46.877 12.924 46.429 13.06 45.925 13.06C45.517 13.06 45.209 12.944 45.001 12.712C44.793 12.472 44.689 12.128 44.689 11.68C44.689 11.456 44.745 11.056 44.857 10.48C44.961 9.97597 45.013 9.62797 45.013 9.43597C45.013 9.30797 44.969 9.24397 44.881 9.24397C44.777 9.24397 44.629 9.37997 44.437 9.65197C44.253 9.91597 44.061 10.268 43.861 10.708C43.669 11.148 43.513 11.612 43.393 12.1C43.305 12.476 43.201 12.732 43.081 12.868C42.969 12.996 42.789 13.06 42.541 13.06Z" fill="url(#paint6_linear)"/>
<path d="M52.7301 10.324C52.8181 10.98 52.9461 11.628 53.1141 12.268C53.1461 12.372 53.1621 12.48 53.1621 12.592C53.1621 12.952 52.9421 13.132 52.5021 13.132C52.2541 13.132 52.0621 13.064 51.9261 12.928C51.7981 12.792 51.6781 12.536 51.5661 12.16L51.5541 12.112C51.2501 12.488 50.9741 12.74 50.7261 12.868C50.4861 12.996 50.2061 13.06 49.8861 13.06C49.3981 13.06 48.9941 12.88 48.6741 12.52C48.3621 12.152 48.2061 11.676 48.2061 11.092C48.2061 10.452 48.3421 9.85997 48.6141 9.31597C48.8861 8.77197 49.2581 8.32797 49.7301 7.98397C50.2021 7.63197 50.7301 7.41997 51.3141 7.34797C51.4661 5.83597 51.7541 4.51997 52.1781 3.39997C52.6101 2.27997 53.1821 1.71997 53.8941 1.71997C54.2381 1.71997 54.5221 1.87597 54.7461 2.18797C54.9781 2.49997 55.0941 2.97197 55.0941 3.60397C55.0941 4.48397 54.8781 5.51197 54.4461 6.68797C54.0141 7.86397 53.4421 9.07597 52.7301 10.324ZM53.7621 2.89597C53.5301 2.89597 53.3101 3.48797 53.1021 4.67197C52.9021 5.85597 52.7661 7.14397 52.6941 8.53597C53.5821 6.61597 54.0261 5.05597 54.0261 3.85597C54.0261 3.55197 53.9981 3.31597 53.9421 3.14797C53.8941 2.97997 53.8341 2.89597 53.7621 2.89597ZM50.3061 11.848C50.4661 11.848 50.6181 11.788 50.7621 11.668C50.9141 11.548 51.1061 11.316 51.3381 10.972C51.2581 10.388 51.2181 9.78397 51.2181 9.15997C51.2181 8.91197 51.2221 8.71997 51.2301 8.58397C50.7901 8.71197 50.4261 9.00397 50.1381 9.45997C49.8501 9.91597 49.7061 10.42 49.7061 10.972C49.7061 11.556 49.9061 11.848 50.3061 11.848Z" fill="#6B80CB"/>
<path d="M52.7301 10.324C52.8181 10.98 52.9461 11.628 53.1141 12.268C53.1461 12.372 53.1621 12.48 53.1621 12.592C53.1621 12.952 52.9421 13.132 52.5021 13.132C52.2541 13.132 52.0621 13.064 51.9261 12.928C51.7981 12.792 51.6781 12.536 51.5661 12.16L51.5541 12.112C51.2501 12.488 50.9741 12.74 50.7261 12.868C50.4861 12.996 50.2061 13.06 49.8861 13.06C49.3981 13.06 48.9941 12.88 48.6741 12.52C48.3621 12.152 48.2061 11.676 48.2061 11.092C48.2061 10.452 48.3421 9.85997 48.6141 9.31597C48.8861 8.77197 49.2581 8.32797 49.7301 7.98397C50.2021 7.63197 50.7301 7.41997 51.3141 7.34797C51.4661 5.83597 51.7541 4.51997 52.1781 3.39997C52.6101 2.27997 53.1821 1.71997 53.8941 1.71997C54.2381 1.71997 54.5221 1.87597 54.7461 2.18797C54.9781 2.49997 55.0941 2.97197 55.0941 3.60397C55.0941 4.48397 54.8781 5.51197 54.4461 6.68797C54.0141 7.86397 53.4421 9.07597 52.7301 10.324ZM53.7621 2.89597C53.5301 2.89597 53.3101 3.48797 53.1021 4.67197C52.9021 5.85597 52.7661 7.14397 52.6941 8.53597C53.5821 6.61597 54.0261 5.05597 54.0261 3.85597C54.0261 3.55197 53.9981 3.31597 53.9421 3.14797C53.8941 2.97997 53.8341 2.89597 53.7621 2.89597ZM50.3061 11.848C50.4661 11.848 50.6181 11.788 50.7621 11.668C50.9141 11.548 51.1061 11.316 51.3381 10.972C51.2581 10.388 51.2181 9.78397 51.2181 9.15997C51.2181 8.91197 51.2221 8.71997 51.2301 8.58397C50.7901 8.71197 50.4261 9.00397 50.1381 9.45997C49.8501 9.91597 49.7061 10.42 49.7061 10.972C49.7061 11.556 49.9061 11.848 50.3061 11.848Z" fill="url(#paint7_linear)"/>
<path d="M68.7358 5.31997C68.7358 5.99997 68.4958 6.58797 68.0158 7.08397C67.5358 7.57197 66.8358 7.92397 65.9158 8.13997C66.4118 8.27597 66.7878 8.49997 67.0438 8.81197C67.2998 9.11597 67.4278 9.46797 67.4278 9.86797C67.4278 10.5 67.2278 11.048 66.8278 11.512C66.4358 11.976 65.8598 12.336 65.0998 12.592C64.3398 12.84 63.4238 12.964 62.3518 12.964C61.9518 12.964 61.6318 12.952 61.3918 12.928C61.3838 13.152 61.2878 13.32 61.1038 13.432C60.9198 13.544 60.6838 13.6 60.3958 13.6C60.1078 13.6 59.9078 13.536 59.7958 13.408C59.6918 13.28 59.6478 13.092 59.6638 12.844C59.7358 11.724 59.8758 10.552 60.0838 9.32797C60.2918 8.09597 60.5558 6.90797 60.8758 5.76397C60.9318 5.56397 61.0438 5.42397 61.2118 5.34397C61.3798 5.26397 61.5998 5.22397 61.8718 5.22397C62.3598 5.22397 62.6038 5.35997 62.6038 5.63197C62.6038 5.74397 62.5798 5.87197 62.5318 6.01597C62.3238 6.63997 62.1158 7.48797 61.9078 8.55997C61.6998 9.62397 61.5518 10.64 61.4638 11.608C61.8478 11.64 62.1598 11.656 62.3998 11.656C63.5198 11.656 64.3398 11.496 64.8598 11.176C65.3878 10.848 65.6518 10.432 65.6518 9.92797C65.6518 9.57597 65.4998 9.27997 65.1958 9.03997C64.8998 8.79997 64.3998 8.66797 63.6958 8.64397C63.5358 8.63597 63.4238 8.59597 63.3598 8.52397C63.2958 8.45197 63.2638 8.33597 63.2638 8.17597C63.2638 7.94397 63.3118 7.75597 63.4078 7.61197C63.5038 7.46797 63.6798 7.39197 63.9358 7.38397C64.5038 7.36797 65.0158 7.28397 65.4718 7.13197C65.9358 6.97997 66.2998 6.76797 66.5638 6.49597C66.8278 6.21597 66.9598 5.89197 66.9598 5.52397C66.9598 5.05997 66.7318 4.69597 66.2758 4.43197C65.8198 4.15997 65.1198 4.02397 64.1758 4.02397C63.3198 4.02397 62.4918 4.13597 61.6918 4.35997C60.8918 4.57597 60.2118 4.85197 59.6518 5.18797C59.3958 5.33997 59.1798 5.41597 59.0038 5.41597C58.8598 5.41597 58.7478 5.36797 58.6678 5.27197C58.5958 5.16797 58.5598 5.03997 58.5598 4.88797C58.5598 4.68797 58.5998 4.51597 58.6798 4.37197C58.7678 4.22797 58.9718 4.06397 59.2918 3.87997C59.9638 3.49597 60.7518 3.19597 61.6558 2.97997C62.5598 2.76397 63.4838 2.65597 64.4278 2.65597C65.8758 2.65597 66.9558 2.89997 67.6678 3.38797C68.3798 3.87597 68.7358 4.51997 68.7358 5.31997Z" fill="#6B80CB"/>
<path d="M68.7358 5.31997C68.7358 5.99997 68.4958 6.58797 68.0158 7.08397C67.5358 7.57197 66.8358 7.92397 65.9158 8.13997C66.4118 8.27597 66.7878 8.49997 67.0438 8.81197C67.2998 9.11597 67.4278 9.46797 67.4278 9.86797C67.4278 10.5 67.2278 11.048 66.8278 11.512C66.4358 11.976 65.8598 12.336 65.0998 12.592C64.3398 12.84 63.4238 12.964 62.3518 12.964C61.9518 12.964 61.6318 12.952 61.3918 12.928C61.3838 13.152 61.2878 13.32 61.1038 13.432C60.9198 13.544 60.6838 13.6 60.3958 13.6C60.1078 13.6 59.9078 13.536 59.7958 13.408C59.6918 13.28 59.6478 13.092 59.6638 12.844C59.7358 11.724 59.8758 10.552 60.0838 9.32797C60.2918 8.09597 60.5558 6.90797 60.8758 5.76397C60.9318 5.56397 61.0438 5.42397 61.2118 5.34397C61.3798 5.26397 61.5998 5.22397 61.8718 5.22397C62.3598 5.22397 62.6038 5.35997 62.6038 5.63197C62.6038 5.74397 62.5798 5.87197 62.5318 6.01597C62.3238 6.63997 62.1158 7.48797 61.9078 8.55997C61.6998 9.62397 61.5518 10.64 61.4638 11.608C61.8478 11.64 62.1598 11.656 62.3998 11.656C63.5198 11.656 64.3398 11.496 64.8598 11.176C65.3878 10.848 65.6518 10.432 65.6518 9.92797C65.6518 9.57597 65.4998 9.27997 65.1958 9.03997C64.8998 8.79997 64.3998 8.66797 63.6958 8.64397C63.5358 8.63597 63.4238 8.59597 63.3598 8.52397C63.2958 8.45197 63.2638 8.33597 63.2638 8.17597C63.2638 7.94397 63.3118 7.75597 63.4078 7.61197C63.5038 7.46797 63.6798 7.39197 63.9358 7.38397C64.5038 7.36797 65.0158 7.28397 65.4718 7.13197C65.9358 6.97997 66.2998 6.76797 66.5638 6.49597C66.8278 6.21597 66.9598 5.89197 66.9598 5.52397C66.9598 5.05997 66.7318 4.69597 66.2758 4.43197C65.8198 4.15997 65.1198 4.02397 64.1758 4.02397C63.3198 4.02397 62.4918 4.13597 61.6918 4.35997C60.8918 4.57597 60.2118 4.85197 59.6518 5.18797C59.3958 5.33997 59.1798 5.41597 59.0038 5.41597C58.8598 5.41597 58.7478 5.36797 58.6678 5.27197C58.5958 5.16797 58.5598 5.03997 58.5598 4.88797C58.5598 4.68797 58.5998 4.51597 58.6798 4.37197C58.7678 4.22797 58.9718 4.06397 59.2918 3.87997C59.9638 3.49597 60.7518 3.19597 61.6558 2.97997C62.5598 2.76397 63.4838 2.65597 64.4278 2.65597C65.8758 2.65597 66.9558 2.89997 67.6678 3.38797C68.3798 3.87597 68.7358 4.51997 68.7358 5.31997Z" fill="url(#paint8_linear)"/>
<path d="M70.5372 13.06C70.0412 13.06 69.6452 12.88 69.3492 12.52C69.0532 12.16 68.9052 11.688 68.9052 11.104C68.9052 10.464 69.0532 9.85997 69.3492 9.29197C69.6452 8.71597 70.0372 8.25597 70.5252 7.91197C71.0212 7.55997 71.5452 7.38397 72.0972 7.38397C72.2732 7.38397 72.3892 7.41997 72.4452 7.49197C72.5092 7.55597 72.5612 7.67597 72.6012 7.85197C72.7692 7.81997 72.9452 7.80397 73.1292 7.80397C73.5212 7.80397 73.7172 7.94397 73.7172 8.22397C73.7172 8.39197 73.6572 8.79197 73.5372 9.42397C73.3532 10.344 73.2612 10.984 73.2612 11.344C73.2612 11.464 73.2892 11.56 73.3452 11.632C73.4092 11.704 73.4892 11.74 73.5852 11.74C73.7372 11.74 73.9212 11.644 74.1372 11.452C74.3532 11.252 74.6452 10.932 75.0132 10.492C75.1092 10.38 75.2172 10.324 75.3372 10.324C75.4412 10.324 75.5212 10.372 75.5772 10.468C75.6412 10.564 75.6732 10.696 75.6732 10.864C75.6732 11.184 75.5972 11.432 75.4452 11.608C75.1172 12.016 74.7692 12.36 74.4012 12.64C74.0332 12.92 73.6772 13.06 73.3332 13.06C73.0692 13.06 72.8252 12.972 72.6012 12.796C72.3852 12.612 72.2212 12.364 72.1092 12.052C71.6932 12.724 71.1692 13.06 70.5372 13.06ZM70.9692 11.848C71.1452 11.848 71.3132 11.744 71.4732 11.536C71.6332 11.328 71.7492 11.052 71.8212 10.708L72.2652 8.49997C71.9292 8.50797 71.6172 8.63597 71.3292 8.88397C71.0492 9.12397 70.8252 9.44397 70.6572 9.84397C70.4892 10.244 70.4052 10.668 70.4052 11.116C70.4052 11.364 70.4532 11.548 70.5492 11.668C70.6532 11.788 70.7932 11.848 70.9692 11.848Z" fill="#6B80CB"/>
<path d="M70.5372 13.06C70.0412 13.06 69.6452 12.88 69.3492 12.52C69.0532 12.16 68.9052 11.688 68.9052 11.104C68.9052 10.464 69.0532 9.85997 69.3492 9.29197C69.6452 8.71597 70.0372 8.25597 70.5252 7.91197C71.0212 7.55997 71.5452 7.38397 72.0972 7.38397C72.2732 7.38397 72.3892 7.41997 72.4452 7.49197C72.5092 7.55597 72.5612 7.67597 72.6012 7.85197C72.7692 7.81997 72.9452 7.80397 73.1292 7.80397C73.5212 7.80397 73.7172 7.94397 73.7172 8.22397C73.7172 8.39197 73.6572 8.79197 73.5372 9.42397C73.3532 10.344 73.2612 10.984 73.2612 11.344C73.2612 11.464 73.2892 11.56 73.3452 11.632C73.4092 11.704 73.4892 11.74 73.5852 11.74C73.7372 11.74 73.9212 11.644 74.1372 11.452C74.3532 11.252 74.6452 10.932 75.0132 10.492C75.1092 10.38 75.2172 10.324 75.3372 10.324C75.4412 10.324 75.5212 10.372 75.5772 10.468C75.6412 10.564 75.6732 10.696 75.6732 10.864C75.6732 11.184 75.5972 11.432 75.4452 11.608C75.1172 12.016 74.7692 12.36 74.4012 12.64C74.0332 12.92 73.6772 13.06 73.3332 13.06C73.0692 13.06 72.8252 12.972 72.6012 12.796C72.3852 12.612 72.2212 12.364 72.1092 12.052C71.6932 12.724 71.1692 13.06 70.5372 13.06ZM70.9692 11.848C71.1452 11.848 71.3132 11.744 71.4732 11.536C71.6332 11.328 71.7492 11.052 71.8212 10.708L72.2652 8.49997C71.9292 8.50797 71.6172 8.63597 71.3292 8.88397C71.0492 9.12397 70.8252 9.44397 70.6572 9.84397C70.4892 10.244 70.4052 10.668 70.4052 11.116C70.4052 11.364 70.4532 11.548 70.5492 11.668C70.6532 11.788 70.7932 11.848 70.9692 11.848Z" fill="url(#paint9_linear)"/>
<path d="M77.6499 13.324C77.2339 13.324 76.9139 13.228 76.6899 13.036C76.4739 12.844 76.3659 12.628 76.3659 12.388C76.3659 12.18 76.4419 12 76.5939 11.848C76.7459 11.696 76.9699 11.62 77.2659 11.62C77.3699 11.62 77.4899 11.632 77.6259 11.656C77.7699 11.672 77.8779 11.684 77.9499 11.692C77.9419 11.484 77.8939 11.288 77.8059 11.104C77.7259 10.92 77.6219 10.744 77.4939 10.576C77.3659 10.4 77.2459 10.248 77.1339 10.12C76.8859 10.592 76.6379 10.984 76.3899 11.296C76.1499 11.608 75.8859 11.904 75.5979 12.184C75.4539 12.328 75.3019 12.4 75.1419 12.4C75.0139 12.4 74.9099 12.356 74.8299 12.268C74.7499 12.172 74.7099 12.056 74.7099 11.92C74.7099 11.76 74.7659 11.612 74.8779 11.476L75.0339 11.284C75.4739 10.74 75.8059 10.292 76.0299 9.93997C76.1659 9.70797 76.3259 9.39997 76.5099 9.01597C76.6939 8.62397 76.8739 8.21997 77.0499 7.80397C77.2019 7.45197 77.5179 7.27597 77.9979 7.27597C78.2219 7.27597 78.3779 7.29597 78.4659 7.33597C78.5539 7.37597 78.5979 7.43997 78.5979 7.52797C78.5979 7.57597 78.5819 7.65197 78.5499 7.75597C78.5179 7.85997 78.4739 7.96397 78.4179 8.06797C78.2739 8.35597 78.2019 8.59997 78.2019 8.79997C78.2019 8.91997 78.2419 9.05197 78.3219 9.19597C78.4099 9.33997 78.5419 9.51997 78.7179 9.73597C78.9739 10.072 79.1659 10.36 79.2939 10.6C79.4299 10.832 79.4979 11.088 79.4979 11.368C79.4979 11.448 79.4899 11.56 79.4739 11.704C79.8659 11.552 80.3259 11.148 80.8539 10.492C80.9499 10.38 81.0579 10.324 81.1779 10.324C81.2819 10.324 81.3619 10.372 81.4179 10.468C81.4819 10.564 81.5139 10.696 81.5139 10.864C81.5139 11.168 81.4379 11.416 81.2859 11.608C80.8859 12.104 80.5019 12.444 80.1339 12.628C79.7739 12.804 79.3259 12.9 78.7899 12.916C78.4699 13.188 78.0899 13.324 77.6499 13.324Z" fill="#6B80CB"/>
<path d="M77.6499 13.324C77.2339 13.324 76.9139 13.228 76.6899 13.036C76.4739 12.844 76.3659 12.628 76.3659 12.388C76.3659 12.18 76.4419 12 76.5939 11.848C76.7459 11.696 76.9699 11.62 77.2659 11.62C77.3699 11.62 77.4899 11.632 77.6259 11.656C77.7699 11.672 77.8779 11.684 77.9499 11.692C77.9419 11.484 77.8939 11.288 77.8059 11.104C77.7259 10.92 77.6219 10.744 77.4939 10.576C77.3659 10.4 77.2459 10.248 77.1339 10.12C76.8859 10.592 76.6379 10.984 76.3899 11.296C76.1499 11.608 75.8859 11.904 75.5979 12.184C75.4539 12.328 75.3019 12.4 75.1419 12.4C75.0139 12.4 74.9099 12.356 74.8299 12.268C74.7499 12.172 74.7099 12.056 74.7099 11.92C74.7099 11.76 74.7659 11.612 74.8779 11.476L75.0339 11.284C75.4739 10.74 75.8059 10.292 76.0299 9.93997C76.1659 9.70797 76.3259 9.39997 76.5099 9.01597C76.6939 8.62397 76.8739 8.21997 77.0499 7.80397C77.2019 7.45197 77.5179 7.27597 77.9979 7.27597C78.2219 7.27597 78.3779 7.29597 78.4659 7.33597C78.5539 7.37597 78.5979 7.43997 78.5979 7.52797C78.5979 7.57597 78.5819 7.65197 78.5499 7.75597C78.5179 7.85997 78.4739 7.96397 78.4179 8.06797C78.2739 8.35597 78.2019 8.59997 78.2019 8.79997C78.2019 8.91997 78.2419 9.05197 78.3219 9.19597C78.4099 9.33997 78.5419 9.51997 78.7179 9.73597C78.9739 10.072 79.1659 10.36 79.2939 10.6C79.4299 10.832 79.4979 11.088 79.4979 11.368C79.4979 11.448 79.4899 11.56 79.4739 11.704C79.8659 11.552 80.3259 11.148 80.8539 10.492C80.9499 10.38 81.0579 10.324 81.1779 10.324C81.2819 10.324 81.3619 10.372 81.4179 10.468C81.4819 10.564 81.5139 10.696 81.5139 10.864C81.5139 11.168 81.4379 11.416 81.2859 11.608C80.8859 12.104 80.5019 12.444 80.1339 12.628C79.7739 12.804 79.3259 12.9 78.7899 12.916C78.4699 13.188 78.0899 13.324 77.6499 13.324Z" fill="url(#paint10_linear)"/>
<path d="M82.831 6.61597C82.495 6.61597 82.243 6.53997 82.075 6.38797C81.907 6.22797 81.823 6.00797 81.823 5.72797C81.823 5.44797 81.931 5.21597 82.147 5.03197C82.371 4.83997 82.647 4.74397 82.975 4.74397C83.271 4.74397 83.511 4.81597 83.695 4.95997C83.879 5.10397 83.971 5.30797 83.971 5.57197C83.971 5.89197 83.867 6.14797 83.659 6.33997C83.451 6.52397 83.175 6.61597 82.831 6.61597ZM82.735 13.06C82.215 13.06 81.835 12.876 81.595 12.508C81.363 12.14 81.247 11.652 81.247 11.044C81.247 10.684 81.291 10.224 81.379 9.66397C81.475 9.09597 81.595 8.56797 81.739 8.07997C81.811 7.82397 81.907 7.64797 82.027 7.55197C82.147 7.45597 82.339 7.40797 82.603 7.40797C83.011 7.40797 83.215 7.54397 83.215 7.81597C83.215 8.01597 83.139 8.47997 82.987 9.20797C82.795 10.088 82.699 10.684 82.699 10.996C82.699 11.236 82.731 11.42 82.795 11.548C82.859 11.676 82.967 11.74 83.119 11.74C83.263 11.74 83.443 11.64 83.659 11.44C83.875 11.24 84.163 10.924 84.523 10.492C84.619 10.38 84.727 10.324 84.847 10.324C84.951 10.324 85.031 10.372 85.087 10.468C85.151 10.564 85.183 10.696 85.183 10.864C85.183 11.184 85.107 11.432 84.955 11.608C84.163 12.576 83.423 13.06 82.735 13.06Z" fill="#6B80CB"/>
<path d="M82.831 6.61597C82.495 6.61597 82.243 6.53997 82.075 6.38797C81.907 6.22797 81.823 6.00797 81.823 5.72797C81.823 5.44797 81.931 5.21597 82.147 5.03197C82.371 4.83997 82.647 4.74397 82.975 4.74397C83.271 4.74397 83.511 4.81597 83.695 4.95997C83.879 5.10397 83.971 5.30797 83.971 5.57197C83.971 5.89197 83.867 6.14797 83.659 6.33997C83.451 6.52397 83.175 6.61597 82.831 6.61597ZM82.735 13.06C82.215 13.06 81.835 12.876 81.595 12.508C81.363 12.14 81.247 11.652 81.247 11.044C81.247 10.684 81.291 10.224 81.379 9.66397C81.475 9.09597 81.595 8.56797 81.739 8.07997C81.811 7.82397 81.907 7.64797 82.027 7.55197C82.147 7.45597 82.339 7.40797 82.603 7.40797C83.011 7.40797 83.215 7.54397 83.215 7.81597C83.215 8.01597 83.139 8.47997 82.987 9.20797C82.795 10.088 82.699 10.684 82.699 10.996C82.699 11.236 82.731 11.42 82.795 11.548C82.859 11.676 82.967 11.74 83.119 11.74C83.263 11.74 83.443 11.64 83.659 11.44C83.875 11.24 84.163 10.924 84.523 10.492C84.619 10.38 84.727 10.324 84.847 10.324C84.951 10.324 85.031 10.372 85.087 10.468C85.151 10.564 85.183 10.696 85.183 10.864C85.183 11.184 85.107 11.432 84.955 11.608C84.163 12.576 83.423 13.06 82.735 13.06Z" fill="url(#paint11_linear)"/>
<path d="M87.1641 13.06C86.4041 13.06 85.8081 12.84 85.3761 12.4C84.9521 11.952 84.7401 11.364 84.7401 10.636C84.7401 9.98797 84.8681 9.41997 85.1241 8.93197C85.3801 8.44397 85.7121 8.06797 86.1201 7.80397C86.5281 7.53997 86.9561 7.40797 87.4041 7.40797C87.8441 7.40797 88.1841 7.53997 88.4241 7.80397C88.6721 8.05997 88.7961 8.39197 88.7961 8.79997C88.7961 9.13597 88.7201 9.41997 88.5681 9.65197C88.4241 9.88397 88.2321 9.99997 87.9921 9.99997C87.8401 9.99997 87.7161 9.96397 87.6201 9.89197C87.5321 9.81997 87.4881 9.71997 87.4881 9.59197C87.4881 9.53597 87.4961 9.47197 87.5121 9.39997C87.5281 9.32797 87.5401 9.27597 87.5481 9.24397C87.5881 9.12397 87.6081 9.01197 87.6081 8.90797C87.6081 8.80397 87.5801 8.72397 87.5241 8.66797C87.4761 8.61197 87.4041 8.58397 87.3081 8.58397C87.1241 8.58397 86.9521 8.66797 86.7921 8.83597C86.6321 8.99597 86.5041 9.21597 86.4081 9.49597C86.3121 9.77597 86.2641 10.084 86.2641 10.42C86.2641 10.876 86.3561 11.224 86.5401 11.464C86.7321 11.696 87.0001 11.812 87.3441 11.812C87.6161 11.812 87.8641 11.732 88.0881 11.572C88.3201 11.412 88.5481 11.176 88.7721 10.864C88.8681 10.744 88.9761 10.684 89.0961 10.684C89.2001 10.684 89.2801 10.732 89.3361 10.828C89.4001 10.924 89.4321 11.056 89.4321 11.224C89.4321 11.512 89.3641 11.76 89.2281 11.968C89.0121 12.304 88.7281 12.572 88.3761 12.772C88.0241 12.964 87.6201 13.06 87.1641 13.06Z" fill="#6B80CB"/>
<path d="M87.1641 13.06C86.4041 13.06 85.8081 12.84 85.3761 12.4C84.9521 11.952 84.7401 11.364 84.7401 10.636C84.7401 9.98797 84.8681 9.41997 85.1241 8.93197C85.3801 8.44397 85.7121 8.06797 86.1201 7.80397C86.5281 7.53997 86.9561 7.40797 87.4041 7.40797C87.8441 7.40797 88.1841 7.53997 88.4241 7.80397C88.6721 8.05997 88.7961 8.39197 88.7961 8.79997C88.7961 9.13597 88.7201 9.41997 88.5681 9.65197C88.4241 9.88397 88.2321 9.99997 87.9921 9.99997C87.8401 9.99997 87.7161 9.96397 87.6201 9.89197C87.5321 9.81997 87.4881 9.71997 87.4881 9.59197C87.4881 9.53597 87.4961 9.47197 87.5121 9.39997C87.5281 9.32797 87.5401 9.27597 87.5481 9.24397C87.5881 9.12397 87.6081 9.01197 87.6081 8.90797C87.6081 8.80397 87.5801 8.72397 87.5241 8.66797C87.4761 8.61197 87.4041 8.58397 87.3081 8.58397C87.1241 8.58397 86.9521 8.66797 86.7921 8.83597C86.6321 8.99597 86.5041 9.21597 86.4081 9.49597C86.3121 9.77597 86.2641 10.084 86.2641 10.42C86.2641 10.876 86.3561 11.224 86.5401 11.464C86.7321 11.696 87.0001 11.812 87.3441 11.812C87.6161 11.812 87.8641 11.732 88.0881 11.572C88.3201 11.412 88.5481 11.176 88.7721 10.864C88.8681 10.744 88.9761 10.684 89.0961 10.684C89.2001 10.684 89.2801 10.732 89.3361 10.828C89.4001 10.924 89.4321 11.056 89.4321 11.224C89.4321 11.512 89.3641 11.76 89.2281 11.968C89.0121 12.304 88.7281 12.572 88.3761 12.772C88.0241 12.964 87.6201 13.06 87.1641 13.06Z" fill="url(#paint12_linear)"/>
<path d="M12.644 3.05197C12.868 3.08397 13.02 3.15197 13.1 3.25597C13.188 3.35997 13.232 3.49597 13.232 3.66397C13.232 4.21597 12.936 4.47197 12.344 4.43197L11.924 4.39597C11.452 4.35597 10.98 4.32397 10.508 4.29997C10.044 4.27597 9.556 4.26397 9.044 4.26397H8.504C8.408 5.44797 8.308 6.52797 8.204 7.50397L10.268 7.46797C10.564 7.46797 10.76 7.51997 10.856 7.62397C10.96 7.72797 11.012 7.86797 11.012 8.04397C11.012 8.31597 10.932 8.53197 10.772 8.69197C10.612 8.84397 10.384 8.91997 10.088 8.91997H8.036L7.964 9.43597C7.796 10.756 7.436 11.696 6.884 12.256C6.34 12.816 5.588 13.096 4.628 13.096C4.084 13.096 3.584 12.98 3.128 12.748C2.672 12.508 2.336 12.22 2.12 11.884C2.032 11.748 1.988 11.584 1.988 11.392C1.988 11.2 2.032 11.032 2.12 10.888C2.216 10.744 2.332 10.672 2.468 10.672C2.564 10.672 2.656 10.704 2.744 10.768C2.84 10.832 2.96 10.956 3.104 11.14C3.488 11.644 3.964 11.896 4.532 11.896C4.988 11.896 5.368 11.712 5.672 11.344C5.984 10.968 6.184 10.38 6.272 9.57997L6.344 8.91997H5.768C5.584 8.91997 5.424 8.86797 5.288 8.76397C5.16 8.65997 5.096 8.51197 5.096 8.31997C5.096 8.07197 5.16 7.88397 5.288 7.75597C5.416 7.61997 5.604 7.55197 5.852 7.55197C6.076 7.55197 6.296 7.54797 6.512 7.53997C6.608 6.65997 6.712 5.59197 6.824 4.33597C5.96 4.41597 5.352 4.55597 5 4.75597C4.648 4.95597 4.472 5.25197 4.472 5.64397C4.472 5.91597 4.552 6.17597 4.712 6.42397C4.76 6.49597 4.784 6.56797 4.784 6.63997C4.784 6.78397 4.704 6.91197 4.544 7.02397C4.384 7.12797 4.204 7.17997 4.004 7.17997C3.788 7.17997 3.604 7.11597 3.452 6.98797C3.356 6.90797 3.264 6.74397 3.176 6.49597C3.088 6.24797 3.044 5.97197 3.044 5.66797C3.044 4.67597 3.552 3.95597 4.568 3.50797C5.592 3.05997 7.084 2.83597 9.044 2.83597C10.404 2.83597 11.604 2.90797 12.644 3.05197Z" stroke="black" stroke-width="2" mask="url(#path-1-outside-1)"/>
<path d="M12.691 13.06C12.387 13.06 12.171 12.9 12.043 12.58C11.923 12.26 11.863 11.748 11.863 11.044C11.863 10.004 12.011 9.01597 12.307 8.07997C12.379 7.84797 12.495 7.67997 12.655 7.57597C12.823 7.46397 13.055 7.40797 13.351 7.40797C13.511 7.40797 13.623 7.42797 13.687 7.46797C13.751 7.50797 13.783 7.58397 13.783 7.69597C13.783 7.82397 13.723 8.11197 13.603 8.55997C13.523 8.87997 13.459 9.15997 13.411 9.39997C13.363 9.63997 13.323 9.93597 13.291 10.288C13.555 9.59997 13.851 9.03997 14.179 8.60797C14.507 8.17597 14.827 7.86797 15.139 7.68397C15.459 7.49997 15.751 7.40797 16.015 7.40797C16.535 7.40797 16.795 7.66797 16.795 8.18797C16.795 8.29197 16.759 8.54397 16.687 8.94397C16.623 9.26397 16.591 9.46397 16.591 9.54397C16.591 9.82397 16.691 9.96397 16.891 9.96397C17.115 9.96397 17.403 9.78797 17.755 9.43597C17.859 9.33197 17.967 9.27997 18.079 9.27997C18.183 9.27997 18.263 9.32797 18.319 9.42397C18.383 9.51197 18.415 9.63197 18.415 9.78397C18.415 10.08 18.335 10.312 18.175 10.48C17.951 10.712 17.687 10.912 17.383 11.08C17.087 11.24 16.771 11.32 16.435 11.32C16.011 11.32 15.687 11.212 15.463 10.996C15.247 10.78 15.139 10.488 15.139 10.12C15.139 9.99997 15.151 9.87997 15.175 9.75997C15.191 9.59997 15.199 9.49197 15.199 9.43597C15.199 9.30797 15.155 9.24397 15.067 9.24397C14.947 9.24397 14.787 9.37997 14.587 9.65197C14.395 9.91597 14.203 10.268 14.011 10.708C13.819 11.148 13.663 11.612 13.543 12.1C13.455 12.476 13.351 12.732 13.231 12.868C13.119 12.996 12.939 13.06 12.691 13.06Z" stroke="black" stroke-width="2" mask="url(#path-1-outside-1)"/>
<path d="M24.1399 9.31597C24.2439 9.31597 24.3239 9.36797 24.3799 9.47197C24.4359 9.57597 24.4639 9.70797 24.4639 9.86797C24.4639 10.252 24.3479 10.48 24.1159 10.552C23.6359 10.72 23.1079 10.816 22.5319 10.84C22.3799 11.512 22.0799 12.052 21.6319 12.46C21.1839 12.86 20.6759 13.06 20.1079 13.06C19.6279 13.06 19.2159 12.944 18.8719 12.712C18.5359 12.48 18.2799 12.172 18.1039 11.788C17.9279 11.404 17.8399 10.988 17.8399 10.54C17.8399 9.93197 17.9559 9.39197 18.1879 8.91997C18.4199 8.43997 18.7399 8.06797 19.1479 7.80397C19.5559 7.53197 20.0079 7.39597 20.5039 7.39597C21.1119 7.39597 21.5999 7.60797 21.9679 8.03197C22.3439 8.44797 22.5639 8.96397 22.6279 9.57997C23.0039 9.55597 23.4519 9.47597 23.9719 9.33997C24.0359 9.32397 24.0919 9.31597 24.1399 9.31597ZM20.2039 11.788C20.4599 11.788 20.6799 11.684 20.8639 11.476C21.0559 11.268 21.1839 10.968 21.2479 10.576C20.9999 10.408 20.8079 10.188 20.6719 9.91597C20.5439 9.64397 20.4799 9.35597 20.4799 9.05197C20.4799 8.92397 20.4919 8.79597 20.5159 8.66797H20.4559C20.1359 8.66797 19.8679 8.82397 19.6519 9.13597C19.4439 9.43997 19.3399 9.87197 19.3399 10.432C19.3399 10.872 19.4239 11.208 19.5919 11.44C19.7679 11.672 19.9719 11.788 20.2039 11.788Z" stroke="black" stroke-width="2" mask="url(#path-1-outside-1)"/>
<path d="M25.006 13.06C24.702 13.06 24.486 12.9 24.358 12.58C24.238 12.26 24.178 11.748 24.178 11.044C24.178 10.004 24.326 9.01597 24.622 8.07997C24.694 7.84797 24.81 7.67997 24.97 7.57597C25.138 7.46397 25.37 7.40797 25.666 7.40797C25.826 7.40797 25.938 7.42797 26.002 7.46797C26.066 7.50797 26.098 7.58397 26.098 7.69597C26.098 7.82397 26.038 8.11197 25.918 8.55997C25.838 8.87997 25.774 9.15997 25.726 9.39997C25.678 9.63997 25.638 9.93597 25.606 10.288C25.87 9.59997 26.166 9.03997 26.494 8.60797C26.822 8.17597 27.142 7.86797 27.454 7.68397C27.774 7.49997 28.066 7.40797 28.33 7.40797C28.85 7.40797 29.11 7.66797 29.11 8.18797C29.11 8.49997 29.022 9.06397 28.846 9.87997C28.694 10.576 28.618 11.036 28.618 11.26C28.618 11.58 28.734 11.74 28.966 11.74C29.126 11.74 29.314 11.644 29.53 11.452C29.754 11.252 30.05 10.932 30.418 10.492C30.514 10.38 30.622 10.324 30.742 10.324C30.846 10.324 30.926 10.372 30.982 10.468C31.046 10.564 31.078 10.696 31.078 10.864C31.078 11.184 31.002 11.432 30.85 11.608C30.506 12.032 30.134 12.38 29.734 12.652C29.342 12.924 28.894 13.06 28.39 13.06C27.982 13.06 27.674 12.944 27.466 12.712C27.258 12.472 27.154 12.128 27.154 11.68C27.154 11.456 27.21 11.056 27.322 10.48C27.426 9.97597 27.478 9.62797 27.478 9.43597C27.478 9.30797 27.434 9.24397 27.346 9.24397C27.242 9.24397 27.094 9.37997 26.902 9.65197C26.718 9.91597 26.526 10.268 26.326 10.708C26.134 11.148 25.978 11.612 25.858 12.1C25.77 12.476 25.666 12.732 25.546 12.868C25.434 12.996 25.254 13.06 25.006 13.06Z" stroke="black" stroke-width="2" mask="url(#path-1-outside-1)"/>
<path d="M36.1791 10.324C36.2831 10.324 36.3631 10.372 36.4191 10.468C36.4831 10.564 36.5151 10.696 36.5151 10.864C36.5151 11.184 36.4391 11.432 36.2871 11.608C35.9431 12.032 35.5671 12.38 35.1591 12.652C34.7511 12.924 34.2831 13.06 33.7551 13.06C32.1231 13.06 31.3071 11.912 31.3071 9.61597C31.3071 9.26397 31.3191 8.90797 31.3431 8.54797H30.8751C30.6351 8.54797 30.4711 8.50397 30.3831 8.41597C30.3031 8.32797 30.2631 8.18797 30.2631 7.99597C30.2631 7.54797 30.4431 7.32397 30.8031 7.32397H31.4871C31.6231 6.44397 31.8311 5.63997 32.1111 4.91197C32.3911 4.18397 32.7271 3.60397 33.1191 3.17197C33.5191 2.73997 33.9471 2.52397 34.4031 2.52397C34.7391 2.52397 35.0031 2.67197 35.1951 2.96797C35.3871 3.26397 35.4831 3.63597 35.4831 4.08397C35.4831 5.32397 34.9631 6.40397 33.9231 7.32397H35.2671C35.3951 7.32397 35.4871 7.35197 35.5431 7.40797C35.5991 7.46397 35.6271 7.56797 35.6271 7.71997C35.6271 8.27197 35.1751 8.54797 34.2711 8.54797H32.8071C32.7911 8.94797 32.7831 9.25997 32.7831 9.48397C32.7831 10.316 32.8791 10.9 33.0711 11.236C33.2711 11.572 33.5831 11.74 34.0071 11.74C34.3511 11.74 34.6551 11.636 34.9191 11.428C35.1831 11.22 35.4951 10.908 35.8551 10.492C35.9511 10.38 36.0591 10.324 36.1791 10.324ZM34.0791 3.67597C33.9591 3.67597 33.8231 3.82797 33.6711 4.13197C33.5271 4.42797 33.3871 4.84397 33.2511 5.37997C33.1231 5.90797 33.0151 6.49597 32.9271 7.14397C33.3991 6.73597 33.7511 6.27997 33.9831 5.77597C34.2231 5.26397 34.3431 4.79997 34.3431 4.38397C34.3431 3.91197 34.2551 3.67597 34.0791 3.67597Z" stroke="black" stroke-width="2" mask="url(#path-1-outside-1)"/>
<path d="M41.61 10.324C41.714 10.324 41.794 10.372 41.85 10.468C41.914 10.564 41.946 10.696 41.946 10.864C41.946 11.184 41.87 11.432 41.718 11.608C41.422 11.968 41.002 12.3 40.458 12.604C39.922 12.908 39.346 13.06 38.73 13.06C37.89 13.06 37.238 12.832 36.774 12.376C36.31 11.92 36.078 11.296 36.078 10.504C36.078 9.95197 36.194 9.43997 36.426 8.96797C36.658 8.48797 36.978 8.10797 37.386 7.82797C37.802 7.54797 38.27 7.40797 38.79 7.40797C39.254 7.40797 39.626 7.54797 39.906 7.82797C40.186 8.09997 40.326 8.47197 40.326 8.94397C40.326 9.49597 40.126 9.97197 39.726 10.372C39.334 10.764 38.666 11.076 37.722 11.308C37.922 11.676 38.302 11.86 38.862 11.86C39.222 11.86 39.63 11.736 40.086 11.488C40.55 11.232 40.95 10.9 41.286 10.492C41.382 10.38 41.49 10.324 41.61 10.324ZM38.586 8.58397C38.29 8.58397 38.038 8.75597 37.83 9.09997C37.63 9.44397 37.53 9.85997 37.53 10.348V10.372C38.002 10.26 38.374 10.092 38.646 9.86797C38.918 9.64397 39.054 9.38397 39.054 9.08797C39.054 8.93597 39.01 8.81597 38.922 8.72797C38.842 8.63197 38.73 8.58397 38.586 8.58397Z" stroke="black" stroke-width="2" mask="url(#path-1-outside-1)"/>
<path d="M42.541 13.06C42.237 13.06 42.021 12.9 41.893 12.58C41.773 12.26 41.713 11.748 41.713 11.044C41.713 10.004 41.861 9.01597 42.157 8.07997C42.229 7.84797 42.345 7.67997 42.505 7.57597C42.673 7.46397 42.905 7.40797 43.201 7.40797C43.361 7.40797 43.473 7.42797 43.537 7.46797C43.601 7.50797 43.633 7.58397 43.633 7.69597C43.633 7.82397 43.573 8.11197 43.453 8.55997C43.373 8.87997 43.309 9.15997 43.261 9.39997C43.213 9.63997 43.173 9.93597 43.141 10.288C43.405 9.59997 43.701 9.03997 44.029 8.60797C44.357 8.17597 44.677 7.86797 44.989 7.68397C45.309 7.49997 45.601 7.40797 45.865 7.40797C46.385 7.40797 46.645 7.66797 46.645 8.18797C46.645 8.49997 46.557 9.06397 46.381 9.87997C46.229 10.576 46.153 11.036 46.153 11.26C46.153 11.58 46.269 11.74 46.501 11.74C46.661 11.74 46.849 11.644 47.065 11.452C47.289 11.252 47.585 10.932 47.953 10.492C48.049 10.38 48.157 10.324 48.277 10.324C48.381 10.324 48.461 10.372 48.517 10.468C48.581 10.564 48.613 10.696 48.613 10.864C48.613 11.184 48.537 11.432 48.385 11.608C48.041 12.032 47.669 12.38 47.269 12.652C46.877 12.924 46.429 13.06 45.925 13.06C45.517 13.06 45.209 12.944 45.001 12.712C44.793 12.472 44.689 12.128 44.689 11.68C44.689 11.456 44.745 11.056 44.857 10.48C44.961 9.97597 45.013 9.62797 45.013 9.43597C45.013 9.30797 44.969 9.24397 44.881 9.24397C44.777 9.24397 44.629 9.37997 44.437 9.65197C44.253 9.91597 44.061 10.268 43.861 10.708C43.669 11.148 43.513 11.612 43.393 12.1C43.305 12.476 43.201 12.732 43.081 12.868C42.969 12.996 42.789 13.06 42.541 13.06Z" stroke="black" stroke-width="2" mask="url(#path-1-outside-1)"/>
<path d="M52.7301 10.324C52.8181 10.98 52.9461 11.628 53.1141 12.268C53.1461 12.372 53.1621 12.48 53.1621 12.592C53.1621 12.952 52.9421 13.132 52.5021 13.132C52.2541 13.132 52.0621 13.064 51.9261 12.928C51.7981 12.792 51.6781 12.536 51.5661 12.16L51.5541 12.112C51.2501 12.488 50.9741 12.74 50.7261 12.868C50.4861 12.996 50.2061 13.06 49.8861 13.06C49.3981 13.06 48.9941 12.88 48.6741 12.52C48.3621 12.152 48.2061 11.676 48.2061 11.092C48.2061 10.452 48.3421 9.85997 48.6141 9.31597C48.8861 8.77197 49.2581 8.32797 49.7301 7.98397C50.2021 7.63197 50.7301 7.41997 51.3141 7.34797C51.4661 5.83597 51.7541 4.51997 52.1781 3.39997C52.6101 2.27997 53.1821 1.71997 53.8941 1.71997C54.2381 1.71997 54.5221 1.87597 54.7461 2.18797C54.9781 2.49997 55.0941 2.97197 55.0941 3.60397C55.0941 4.48397 54.8781 5.51197 54.4461 6.68797C54.0141 7.86397 53.4421 9.07597 52.7301 10.324ZM53.7621 2.89597C53.5301 2.89597 53.3101 3.48797 53.1021 4.67197C52.9021 5.85597 52.7661 7.14397 52.6941 8.53597C53.5821 6.61597 54.0261 5.05597 54.0261 3.85597C54.0261 3.55197 53.9981 3.31597 53.9421 3.14797C53.8941 2.97997 53.8341 2.89597 53.7621 2.89597ZM50.3061 11.848C50.4661 11.848 50.6181 11.788 50.7621 11.668C50.9141 11.548 51.1061 11.316 51.3381 10.972C51.2581 10.388 51.2181 9.78397 51.2181 9.15997C51.2181 8.91197 51.2221 8.71997 51.2301 8.58397C50.7901 8.71197 50.4261 9.00397 50.1381 9.45997C49.8501 9.91597 49.7061 10.42 49.7061 10.972C49.7061 11.556 49.9061 11.848 50.3061 11.848Z" stroke="black" stroke-width="2" mask="url(#path-1-outside-1)"/>
<path d="M68.7358 5.31997C68.7358 5.99997 68.4958 6.58797 68.0158 7.08397C67.5358 7.57197 66.8358 7.92397 65.9158 8.13997C66.4118 8.27597 66.7878 8.49997 67.0438 8.81197C67.2998 9.11597 67.4278 9.46797 67.4278 9.86797C67.4278 10.5 67.2278 11.048 66.8278 11.512C66.4358 11.976 65.8598 12.336 65.0998 12.592C64.3398 12.84 63.4238 12.964 62.3518 12.964C61.9518 12.964 61.6318 12.952 61.3918 12.928C61.3838 13.152 61.2878 13.32 61.1038 13.432C60.9198 13.544 60.6838 13.6 60.3958 13.6C60.1078 13.6 59.9078 13.536 59.7958 13.408C59.6918 13.28 59.6478 13.092 59.6638 12.844C59.7358 11.724 59.8758 10.552 60.0838 9.32797C60.2918 8.09597 60.5558 6.90797 60.8758 5.76397C60.9318 5.56397 61.0438 5.42397 61.2118 5.34397C61.3798 5.26397 61.5998 5.22397 61.8718 5.22397C62.3598 5.22397 62.6038 5.35997 62.6038 5.63197C62.6038 5.74397 62.5798 5.87197 62.5318 6.01597C62.3238 6.63997 62.1158 7.48797 61.9078 8.55997C61.6998 9.62397 61.5518 10.64 61.4638 11.608C61.8478 11.64 62.1598 11.656 62.3998 11.656C63.5198 11.656 64.3398 11.496 64.8598 11.176C65.3878 10.848 65.6518 10.432 65.6518 9.92797C65.6518 9.57597 65.4998 9.27997 65.1958 9.03997C64.8998 8.79997 64.3998 8.66797 63.6958 8.64397C63.5358 8.63597 63.4238 8.59597 63.3598 8.52397C63.2958 8.45197 63.2638 8.33597 63.2638 8.17597C63.2638 7.94397 63.3118 7.75597 63.4078 7.61197C63.5038 7.46797 63.6798 7.39197 63.9358 7.38397C64.5038 7.36797 65.0158 7.28397 65.4718 7.13197C65.9358 6.97997 66.2998 6.76797 66.5638 6.49597C66.8278 6.21597 66.9598 5.89197 66.9598 5.52397C66.9598 5.05997 66.7318 4.69597 66.2758 4.43197C65.8198 4.15997 65.1198 4.02397 64.1758 4.02397C63.3198 4.02397 62.4918 4.13597 61.6918 4.35997C60.8918 4.57597 60.2118 4.85197 59.6518 5.18797C59.3958 5.33997 59.1798 5.41597 59.0038 5.41597C58.8598 5.41597 58.7478 5.36797 58.6678 5.27197C58.5958 5.16797 58.5598 5.03997 58.5598 4.88797C58.5598 4.68797 58.5998 4.51597 58.6798 4.37197C58.7678 4.22797 58.9718 4.06397 59.2918 3.87997C59.9638 3.49597 60.7518 3.19597 61.6558 2.97997C62.5598 2.76397 63.4838 2.65597 64.4278 2.65597C65.8758 2.65597 66.9558 2.89997 67.6678 3.38797C68.3798 3.87597 68.7358 4.51997 68.7358 5.31997Z" stroke="black" stroke-width="2" mask="url(#path-1-outside-1)"/>
<path d="M70.5372 13.06C70.0412 13.06 69.6452 12.88 69.3492 12.52C69.0532 12.16 68.9052 11.688 68.9052 11.104C68.9052 10.464 69.0532 9.85997 69.3492 9.29197C69.6452 8.71597 70.0372 8.25597 70.5252 7.91197C71.0212 7.55997 71.5452 7.38397 72.0972 7.38397C72.2732 7.38397 72.3892 7.41997 72.4452 7.49197C72.5092 7.55597 72.5612 7.67597 72.6012 7.85197C72.7692 7.81997 72.9452 7.80397 73.1292 7.80397C73.5212 7.80397 73.7172 7.94397 73.7172 8.22397C73.7172 8.39197 73.6572 8.79197 73.5372 9.42397C73.3532 10.344 73.2612 10.984 73.2612 11.344C73.2612 11.464 73.2892 11.56 73.3452 11.632C73.4092 11.704 73.4892 11.74 73.5852 11.74C73.7372 11.74 73.9212 11.644 74.1372 11.452C74.3532 11.252 74.6452 10.932 75.0132 10.492C75.1092 10.38 75.2172 10.324 75.3372 10.324C75.4412 10.324 75.5212 10.372 75.5772 10.468C75.6412 10.564 75.6732 10.696 75.6732 10.864C75.6732 11.184 75.5972 11.432 75.4452 11.608C75.1172 12.016 74.7692 12.36 74.4012 12.64C74.0332 12.92 73.6772 13.06 73.3332 13.06C73.0692 13.06 72.8252 12.972 72.6012 12.796C72.3852 12.612 72.2212 12.364 72.1092 12.052C71.6932 12.724 71.1692 13.06 70.5372 13.06ZM70.9692 11.848C71.1452 11.848 71.3132 11.744 71.4732 11.536C71.6332 11.328 71.7492 11.052 71.8212 10.708L72.2652 8.49997C71.9292 8.50797 71.6172 8.63597 71.3292 8.88397C71.0492 9.12397 70.8252 9.44397 70.6572 9.84397C70.4892 10.244 70.4052 10.668 70.4052 11.116C70.4052 11.364 70.4532 11.548 70.5492 11.668C70.6532 11.788 70.7932 11.848 70.9692 11.848Z" stroke="black" stroke-width="2" mask="url(#path-1-outside-1)"/>
<path d="M77.6499 13.324C77.2339 13.324 76.9139 13.228 76.6899 13.036C76.4739 12.844 76.3659 12.628 76.3659 12.388C76.3659 12.18 76.4419 12 76.5939 11.848C76.7459 11.696 76.9699 11.62 77.2659 11.62C77.3699 11.62 77.4899 11.632 77.6259 11.656C77.7699 11.672 77.8779 11.684 77.9499 11.692C77.9419 11.484 77.8939 11.288 77.8059 11.104C77.7259 10.92 77.6219 10.744 77.4939 10.576C77.3659 10.4 77.2459 10.248 77.1339 10.12C76.8859 10.592 76.6379 10.984 76.3899 11.296C76.1499 11.608 75.8859 11.904 75.5979 12.184C75.4539 12.328 75.3019 12.4 75.1419 12.4C75.0139 12.4 74.9099 12.356 74.8299 12.268C74.7499 12.172 74.7099 12.056 74.7099 11.92C74.7099 11.76 74.7659 11.612 74.8779 11.476L75.0339 11.284C75.4739 10.74 75.8059 10.292 76.0299 9.93997C76.1659 9.70797 76.3259 9.39997 76.5099 9.01597C76.6939 8.62397 76.8739 8.21997 77.0499 7.80397C77.2019 7.45197 77.5179 7.27597 77.9979 7.27597C78.2219 7.27597 78.3779 7.29597 78.4659 7.33597C78.5539 7.37597 78.5979 7.43997 78.5979 7.52797C78.5979 7.57597 78.5819 7.65197 78.5499 7.75597C78.5179 7.85997 78.4739 7.96397 78.4179 8.06797C78.2739 8.35597 78.2019 8.59997 78.2019 8.79997C78.2019 8.91997 78.2419 9.05197 78.3219 9.19597C78.4099 9.33997 78.5419 9.51997 78.7179 9.73597C78.9739 10.072 79.1659 10.36 79.2939 10.6C79.4299 10.832 79.4979 11.088 79.4979 11.368C79.4979 11.448 79.4899 11.56 79.4739 11.704C79.8659 11.552 80.3259 11.148 80.8539 10.492C80.9499 10.38 81.0579 10.324 81.1779 10.324C81.2819 10.324 81.3619 10.372 81.4179 10.468C81.4819 10.564 81.5139 10.696 81.5139 10.864C81.5139 11.168 81.4379 11.416 81.2859 11.608C80.8859 12.104 80.5019 12.444 80.1339 12.628C79.7739 12.804 79.3259 12.9 78.7899 12.916C78.4699 13.188 78.0899 13.324 77.6499 13.324Z" stroke="black" stroke-width="2" mask="url(#path-1-outside-1)"/>
<path d="M82.831 6.61597C82.495 6.61597 82.243 6.53997 82.075 6.38797C81.907 6.22797 81.823 6.00797 81.823 5.72797C81.823 5.44797 81.931 5.21597 82.147 5.03197C82.371 4.83997 82.647 4.74397 82.975 4.74397C83.271 4.74397 83.511 4.81597 83.695 4.95997C83.879 5.10397 83.971 5.30797 83.971 5.57197C83.971 5.89197 83.867 6.14797 83.659 6.33997C83.451 6.52397 83.175 6.61597 82.831 6.61597ZM82.735 13.06C82.215 13.06 81.835 12.876 81.595 12.508C81.363 12.14 81.247 11.652 81.247 11.044C81.247 10.684 81.291 10.224 81.379 9.66397C81.475 9.09597 81.595 8.56797 81.739 8.07997C81.811 7.82397 81.907 7.64797 82.027 7.55197C82.147 7.45597 82.339 7.40797 82.603 7.40797C83.011 7.40797 83.215 7.54397 83.215 7.81597C83.215 8.01597 83.139 8.47997 82.987 9.20797C82.795 10.088 82.699 10.684 82.699 10.996C82.699 11.236 82.731 11.42 82.795 11.548C82.859 11.676 82.967 11.74 83.119 11.74C83.263 11.74 83.443 11.64 83.659 11.44C83.875 11.24 84.163 10.924 84.523 10.492C84.619 10.38 84.727 10.324 84.847 10.324C84.951 10.324 85.031 10.372 85.087 10.468C85.151 10.564 85.183 10.696 85.183 10.864C85.183 11.184 85.107 11.432 84.955 11.608C84.163 12.576 83.423 13.06 82.735 13.06Z" stroke="black" stroke-width="2" mask="url(#path-1-outside-1)"/>
<path d="M87.1641 13.06C86.4041 13.06 85.8081 12.84 85.3761 12.4C84.9521 11.952 84.7401 11.364 84.7401 10.636C84.7401 9.98797 84.8681 9.41997 85.1241 8.93197C85.3801 8.44397 85.7121 8.06797 86.1201 7.80397C86.5281 7.53997 86.9561 7.40797 87.4041 7.40797C87.8441 7.40797 88.1841 7.53997 88.4241 7.80397C88.6721 8.05997 88.7961 8.39197 88.7961 8.79997C88.7961 9.13597 88.7201 9.41997 88.5681 9.65197C88.4241 9.88397 88.2321 9.99997 87.9921 9.99997C87.8401 9.99997 87.7161 9.96397 87.6201 9.89197C87.5321 9.81997 87.4881 9.71997 87.4881 9.59197C87.4881 9.53597 87.4961 9.47197 87.5121 9.39997C87.5281 9.32797 87.5401 9.27597 87.5481 9.24397C87.5881 9.12397 87.6081 9.01197 87.6081 8.90797C87.6081 8.80397 87.5801 8.72397 87.5241 8.66797C87.4761 8.61197 87.4041 8.58397 87.3081 8.58397C87.1241 8.58397 86.9521 8.66797 86.7921 8.83597C86.6321 8.99597 86.5041 9.21597 86.4081 9.49597C86.3121 9.77597 86.2641 10.084 86.2641 10.42C86.2641 10.876 86.3561 11.224 86.5401 11.464C86.7321 11.696 87.0001 11.812 87.3441 11.812C87.6161 11.812 87.8641 11.732 88.0881 11.572C88.3201 11.412 88.5481 11.176 88.7721 10.864C88.8681 10.744 88.9761 10.684 89.0961 10.684C89.2001 10.684 89.2801 10.732 89.3361 10.828C89.4001 10.924 89.4321 11.056 89.4321 11.224C89.4321 11.512 89.3641 11.76 89.2281 11.968C89.0121 12.304 88.7281 12.572 88.3761 12.772C88.0241 12.964 87.6201 13.06 87.1641 13.06Z" stroke="black" stroke-width="2" mask="url(#path-1-outside-1)"/>
</g>
<defs>
<filter id="filter0_d" x="0.988" y="0.719971" width="90.4441" height="14.88" filterUnits="userSpaceOnUse" color-interpolation-filters="sRGB">
<feFlood flood-opacity="0" result="BackgroundImageFix"/>
<feColorMatrix in="SourceAlpha" type="matrix" values="0 0 0 0 0 0 0 0 0 0 0 0 0 0 0 0 0 0 127 0"/>
<feOffset dx="1" dy="1"/>
<feColorMatrix type="matrix" values="0 0 0 0 0 0 0 0 0 0 0 0 0 0 0 0 0 0 1 0"/>
<feBlend mode="normal" in2="BackgroundImageFix" result="effect1_dropShadow"/>
<feBlend mode="normal" in="SourceGraphic" in2="effect1_dropShadow" result="shape"/>
</filter>
<linearGradient id="paint0_linear" x1="46" y1="18" x2="46" y2="-1.34211" gradientUnits="userSpaceOnUse">
<stop stop-color="#18BFA1"/>
<stop offset="1" stop-color="white" stop-opacity="0"/>
</linearGradient>
<linearGradient id="paint1_linear" x1="46" y1="18" x2="46" y2="-1.34211" gradientUnits="userSpaceOnUse">
<stop stop-color="#18BFA1"/>
<stop offset="1" stop-color="white" stop-opacity="0"/>
</linearGradient>
<linearGradient id="paint2_linear" x1="46" y1="18" x2="46" y2="-1.34211" gradientUnits="userSpaceOnUse">
<stop stop-color="#18BFA1"/>
<stop offset="1" stop-color="white" stop-opacity="0"/>
</linearGradient>
<linearGradient id="paint3_linear" x1="46" y1="18" x2="46" y2="-1.34211" gradientUnits="userSpaceOnUse">
<stop stop-color="#18BFA1"/>
<stop offset="1" stop-color="white" stop-opacity="0"/>
</linearGradient>
<linearGradient id="paint4_linear" x1="46" y1="18" x2="46" y2="-1.34211" gradientUnits="userSpaceOnUse">
<stop stop-color="#18BFA1"/>
<stop offset="1" stop-color="white" stop-opacity="0"/>
</linearGradient>
<linearGradient id="paint5_linear" x1="46" y1="18" x2="46" y2="-1.34211" gradientUnits="userSpaceOnUse">
<stop stop-color="#18BFA1"/>
<stop offset="1" stop-color="white" stop-opacity="0"/>
</linearGradient>
<linearGradient id="paint6_linear" x1="46" y1="18" x2="46" y2="-1.34211" gradientUnits="userSpaceOnUse">
<stop stop-color="#18BFA1"/>
<stop offset="1" stop-color="white" stop-opacity="0"/>
</linearGradient>
<linearGradient id="paint7_linear" x1="46" y1="18" x2="46" y2="-1.34211" gradientUnits="userSpaceOnUse">
<stop stop-color="#18BFA1"/>
<stop offset="1" stop-color="white" stop-opacity="0"/>
</linearGradient>
<linearGradient id="paint8_linear" x1="46" y1="18" x2="46" y2="-1.34211" gradientUnits="userSpaceOnUse">
<stop stop-color="#18BFA1"/>
<stop offset="1" stop-color="white" stop-opacity="0"/>
</linearGradient>
<linearGradient id="paint9_linear" x1="46" y1="18" x2="46" y2="-1.34211" gradientUnits="userSpaceOnUse">
<stop stop-color="#18BFA1"/>
<stop offset="1" stop-color="white" stop-opacity="0"/>
</linearGradient>
<linearGradient id="paint10_linear" x1="46" y1="18" x2="46" y2="-1.34211" gradientUnits="userSpaceOnUse">
<stop stop-color="#18BFA1"/>
<stop offset="1" stop-color="white" stop-opacity="0"/>
</linearGradient>
<linearGradient id="paint11_linear" x1="46" y1="18" x2="46" y2="-1.34211" gradientUnits="userSpaceOnUse">
<stop stop-color="#18BFA1"/>
<stop offset="1" stop-color="white" stop-opacity="0"/>
</linearGradient>
<linearGradient id="paint12_linear" x1="46" y1="18" x2="46" y2="-1.34211" gradientUnits="userSpaceOnUse">
<stop stop-color="#18BFA1"/>
<stop offset="1" stop-color="white" stop-opacity="0"/>
</linearGradient>
</defs>
</svg>
